<?xml version="1.0" encoding="UTF-8" standalone="no"?>
<!-- Created with Inkscape (http://www.inkscape.org/) -->

<svg
   xmlns:dc="http://purl.org/dc/elements/1.1/"
   xmlns:cc="http://creativecommons.org/ns#"
   xmlns:rdf="http://www.w3.org/1999/02/22-rdf-syntax-ns#"
   xmlns:svg="http://www.w3.org/2000/svg"
   xmlns="http://www.w3.org/2000/svg"
   xmlns:sodipodi="http://sodipodi.sourceforge.net/DTD/sodipodi-0.dtd"
   xmlns:inkscape="http://www.inkscape.org/namespaces/inkscape"
   version="1.1"
   id="svg2"
   width="970.75964"
   height="552.72681"
   viewBox="0 0 970.75964 552.7268"
   sodipodi:docname="SEIZEUR_TroncCerebral_Schema_Transverse_mesencephale.svg"
   inkscape:version="0.92.4 (5da689c313, 2019-01-14)">
  <metadata
     id="metadata8">
    <rdf:RDF>
      <cc:Work
         rdf:about="">
        <dc:format>image/svg+xml</dc:format>
        <dc:type
           rdf:resource="http://purl.org/dc/dcmitype/StillImage" />
        <dc:title></dc:title>
      </cc:Work>
    </rdf:RDF>
  </metadata>
  <defs
     id="defs6">
    <filter
       style="color-interpolation-filters:sRGB"
       inkscape:label="Invert"
       id="filter1288">
      <feColorMatrix
         type="hueRotate"
         values="180"
         result="color1"
         id="feColorMatrix1284" />
      <feColorMatrix
         values="-1 0 0 0 1 0 -1 0 0 1 0 0 -1 0 1 -0.21 -0.72 -0.07 2 0 "
         result="color2"
         id="feColorMatrix1286" />
    </filter>
    <filter
       style="color-interpolation-filters:sRGB"
       inkscape:label="Invert"
       id="filter1294">
      <feColorMatrix
         type="hueRotate"
         values="180"
         result="color1"
         id="feColorMatrix1290" />
      <feColorMatrix
         values="-1 0 0 0 1 0 -1 0 0 1 0 0 -1 0 1 -0.21 -0.72 -0.07 2 0 "
         result="color2"
         id="feColorMatrix1292" />
    </filter>
    <filter
       style="color-interpolation-filters:sRGB"
       inkscape:label="Invert"
       id="filter1300">
      <feColorMatrix
         type="hueRotate"
         values="180"
         result="color1"
         id="feColorMatrix1296" />
      <feColorMatrix
         values="-1 0 0 0 1 0 -1 0 0 1 0 0 -1 0 1 -0.21 -0.72 -0.07 2 0 "
         result="color2"
         id="feColorMatrix1298" />
    </filter>
    <filter
       style="color-interpolation-filters:sRGB"
       inkscape:label="Invert"
       id="filter1306">
      <feColorMatrix
         type="hueRotate"
         values="180"
         result="color1"
         id="feColorMatrix1302" />
      <feColorMatrix
         values="-1 0 0 0 1 0 -1 0 0 1 0 0 -1 0 1 -0.21 -0.72 -0.07 2 0 "
         result="color2"
         id="feColorMatrix1304" />
    </filter>
    <filter
       style="color-interpolation-filters:sRGB"
       inkscape:label="Invert"
       id="filter1312">
      <feColorMatrix
         type="hueRotate"
         values="180"
         result="color1"
         id="feColorMatrix1308" />
      <feColorMatrix
         values="-1 0 0 0 1 0 -1 0 0 1 0 0 -1 0 1 -0.21 -0.72 -0.07 2 0 "
         result="color2"
         id="feColorMatrix1310" />
    </filter>
    <filter
       style="color-interpolation-filters:sRGB"
       inkscape:label="Invert"
       id="filter1318">
      <feColorMatrix
         type="hueRotate"
         values="180"
         result="color1"
         id="feColorMatrix1314" />
      <feColorMatrix
         values="-1 0 0 0 1 0 -1 0 0 1 0 0 -1 0 1 -0.21 -0.72 -0.07 2 0 "
         result="color2"
         id="feColorMatrix1316" />
    </filter>
    <filter
       style="color-interpolation-filters:sRGB"
       inkscape:label="Invert"
       id="filter1324">
      <feColorMatrix
         type="hueRotate"
         values="180"
         result="color1"
         id="feColorMatrix1320" />
      <feColorMatrix
         values="-1 0 0 0 1 0 -1 0 0 1 0 0 -1 0 1 -0.21 -0.72 -0.07 2 0 "
         result="color2"
         id="feColorMatrix1322" />
    </filter>
    <filter
       style="color-interpolation-filters:sRGB"
       inkscape:label="Invert"
       id="filter1330">
      <feColorMatrix
         type="hueRotate"
         values="180"
         result="color1"
         id="feColorMatrix1326" />
      <feColorMatrix
         values="-1 0 0 0 1 0 -1 0 0 1 0 0 -1 0 1 -0.21 -0.72 -0.07 2 0 "
         result="color2"
         id="feColorMatrix1328" />
    </filter>
    <filter
       style="color-interpolation-filters:sRGB"
       inkscape:label="Invert"
       id="filter1336">
      <feColorMatrix
         type="hueRotate"
         values="180"
         result="color1"
         id="feColorMatrix1332" />
      <feColorMatrix
         values="-1 0 0 0 1 0 -1 0 0 1 0 0 -1 0 1 -0.21 -0.72 -0.07 2 0 "
         result="color2"
         id="feColorMatrix1334" />
    </filter>
    <filter
       style="color-interpolation-filters:sRGB"
       inkscape:label="Invert"
       id="filter1342">
      <feColorMatrix
         type="hueRotate"
         values="180"
         result="color1"
         id="feColorMatrix1338" />
      <feColorMatrix
         values="-1 0 0 0 1 0 -1 0 0 1 0 0 -1 0 1 -0.21 -0.72 -0.07 2 0 "
         result="color2"
         id="feColorMatrix1340" />
    </filter>
    <filter
       style="color-interpolation-filters:sRGB"
       inkscape:label="Invert"
       id="filter1348">
      <feColorMatrix
         type="hueRotate"
         values="180"
         result="color1"
         id="feColorMatrix1344" />
      <feColorMatrix
         values="-1 0 0 0 1 0 -1 0 0 1 0 0 -1 0 1 -0.21 -0.72 -0.07 2 0 "
         result="color2"
         id="feColorMatrix1346" />
    </filter>
    <filter
       style="color-interpolation-filters:sRGB"
       inkscape:label="Invert"
       id="filter1354">
      <feColorMatrix
         type="hueRotate"
         values="180"
         result="color1"
         id="feColorMatrix1350" />
      <feColorMatrix
         values="-1 0 0 0 1 0 -1 0 0 1 0 0 -1 0 1 -0.21 -0.72 -0.07 2 0 "
         result="color2"
         id="feColorMatrix1352" />
    </filter>
    <filter
       style="color-interpolation-filters:sRGB"
       inkscape:label="Invert"
       id="filter1360">
      <feColorMatrix
         type="hueRotate"
         values="180"
         result="color1"
         id="feColorMatrix1356" />
      <feColorMatrix
         values="-1 0 0 0 1 0 -1 0 0 1 0 0 -1 0 1 -0.21 -0.72 -0.07 2 0 "
         result="color2"
         id="feColorMatrix1358" />
    </filter>
    <filter
       style="color-interpolation-filters:sRGB"
       inkscape:label="Invert"
       id="filter1366">
      <feColorMatrix
         type="hueRotate"
         values="180"
         result="color1"
         id="feColorMatrix1362" />
      <feColorMatrix
         values="-1 0 0 0 1 0 -1 0 0 1 0 0 -1 0 1 -0.21 -0.72 -0.07 2 0 "
         result="color2"
         id="feColorMatrix1364" />
    </filter>
    <filter
       style="color-interpolation-filters:sRGB"
       inkscape:label="Invert"
       id="filter1372">
      <feColorMatrix
         type="hueRotate"
         values="180"
         result="color1"
         id="feColorMatrix1368" />
      <feColorMatrix
         values="-1 0 0 0 1 0 -1 0 0 1 0 0 -1 0 1 -0.21 -0.72 -0.07 2 0 "
         result="color2"
         id="feColorMatrix1370" />
    </filter>
    <filter
       style="color-interpolation-filters:sRGB"
       inkscape:label="Invert"
       id="filter1378">
      <feColorMatrix
         type="hueRotate"
         values="180"
         result="color1"
         id="feColorMatrix1374" />
      <feColorMatrix
         values="-1 0 0 0 1 0 -1 0 0 1 0 0 -1 0 1 -0.21 -0.72 -0.07 2 0 "
         result="color2"
         id="feColorMatrix1376" />
    </filter>
    <filter
       style="color-interpolation-filters:sRGB"
       inkscape:label="Invert"
       id="filter1384">
      <feColorMatrix
         type="hueRotate"
         values="180"
         result="color1"
         id="feColorMatrix1380" />
      <feColorMatrix
         values="-1 0 0 0 1 0 -1 0 0 1 0 0 -1 0 1 -0.21 -0.72 -0.07 2 0 "
         result="color2"
         id="feColorMatrix1382" />
    </filter>
    <filter
       style="color-interpolation-filters:sRGB"
       inkscape:label="Invert"
       id="filter1390">
      <feColorMatrix
         type="hueRotate"
         values="180"
         result="color1"
         id="feColorMatrix1386" />
      <feColorMatrix
         values="-1 0 0 0 1 0 -1 0 0 1 0 0 -1 0 1 -0.21 -0.72 -0.07 2 0 "
         result="color2"
         id="feColorMatrix1388" />
    </filter>
    <filter
       style="color-interpolation-filters:sRGB"
       inkscape:label="Invert"
       id="filter1396">
      <feColorMatrix
         type="hueRotate"
         values="180"
         result="color1"
         id="feColorMatrix1392" />
      <feColorMatrix
         values="-1 0 0 0 1 0 -1 0 0 1 0 0 -1 0 1 -0.21 -0.72 -0.07 2 0 "
         result="color2"
         id="feColorMatrix1394" />
    </filter>
    <filter
       style="color-interpolation-filters:sRGB"
       inkscape:label="Invert"
       id="filter1402">
      <feColorMatrix
         type="hueRotate"
         values="180"
         result="color1"
         id="feColorMatrix1398" />
      <feColorMatrix
         values="-1 0 0 0 1 0 -1 0 0 1 0 0 -1 0 1 -0.21 -0.72 -0.07 2 0 "
         result="color2"
         id="feColorMatrix1400" />
    </filter>
    <filter
       style="color-interpolation-filters:sRGB"
       inkscape:label="Invert"
       id="filter1408">
      <feColorMatrix
         type="hueRotate"
         values="180"
         result="color1"
         id="feColorMatrix1404" />
      <feColorMatrix
         values="-1 0 0 0 1 0 -1 0 0 1 0 0 -1 0 1 -0.21 -0.72 -0.07 2 0 "
         result="color2"
         id="feColorMatrix1406" />
    </filter>
    <filter
       style="color-interpolation-filters:sRGB"
       inkscape:label="Invert"
       id="filter1342-3">
      <feColorMatrix
         type="hueRotate"
         values="180"
         result="color1"
         id="feColorMatrix1338-6" />
      <feColorMatrix
         values="-1 0 0 0 1 0 -1 0 0 1 0 0 -1 0 1 -0.21 -0.72 -0.07 2 0 "
         result="color2"
         id="feColorMatrix1340-7" />
    </filter>
    <filter
       style="color-interpolation-filters:sRGB"
       inkscape:label="Invert"
       id="filter404">
      <feColorMatrix
         type="hueRotate"
         values="180"
         result="color1"
         id="feColorMatrix400" />
      <feColorMatrix
         values="-1 0 0 0 1 0 -1 0 0 1 0 0 -1 0 1 -0.21 -0.72 -0.07 2 0 "
         result="color2"
         id="feColorMatrix402" />
    </filter>
    <filter
       style="color-interpolation-filters:sRGB"
       inkscape:label="Invert"
       id="filter410">
      <feColorMatrix
         type="hueRotate"
         values="180"
         result="color1"
         id="feColorMatrix406" />
      <feColorMatrix
         values="-1 0 0 0 1 0 -1 0 0 1 0 0 -1 0 1 -0.21 -0.72 -0.07 2 0 "
         result="color2"
         id="feColorMatrix408" />
    </filter>
    <filter
       style="color-interpolation-filters:sRGB"
       inkscape:label="Invert"
       id="filter416">
      <feColorMatrix
         type="hueRotate"
         values="180"
         result="color1"
         id="feColorMatrix412" />
      <feColorMatrix
         values="-1 0 0 0 1 0 -1 0 0 1 0 0 -1 0 1 -0.21 -0.72 -0.07 2 0 "
         result="color2"
         id="feColorMatrix414" />
    </filter>
    <filter
       style="color-interpolation-filters:sRGB"
       inkscape:label="Invert"
       id="filter422">
      <feColorMatrix
         type="hueRotate"
         values="180"
         result="color1"
         id="feColorMatrix418" />
      <feColorMatrix
         values="-1 0 0 0 1 0 -1 0 0 1 0 0 -1 0 1 -0.21 -0.72 -0.07 2 0 "
         result="color2"
         id="feColorMatrix420" />
    </filter>
    <filter
       style="color-interpolation-filters:sRGB"
       inkscape:label="Invert"
       id="filter428">
      <feColorMatrix
         type="hueRotate"
         values="180"
         result="color1"
         id="feColorMatrix424" />
      <feColorMatrix
         values="-1 0 0 0 1 0 -1 0 0 1 0 0 -1 0 1 -0.21 -0.72 -0.07 2 0 "
         result="color2"
         id="feColorMatrix426" />
    </filter>
    <filter
       style="color-interpolation-filters:sRGB"
       inkscape:label="Invert"
       id="filter434">
      <feColorMatrix
         type="hueRotate"
         values="180"
         result="color1"
         id="feColorMatrix430" />
      <feColorMatrix
         values="-1 0 0 0 1 0 -1 0 0 1 0 0 -1 0 1 -0.21 -0.72 -0.07 2 0 "
         result="color2"
         id="feColorMatrix432" />
    </filter>
    <filter
       style="color-interpolation-filters:sRGB"
       inkscape:label="Invert"
       id="filter440">
      <feColorMatrix
         type="hueRotate"
         values="180"
         result="color1"
         id="feColorMatrix436" />
      <feColorMatrix
         values="-1 0 0 0 1 0 -1 0 0 1 0 0 -1 0 1 -0.21 -0.72 -0.07 2 0 "
         result="color2"
         id="feColorMatrix438" />
    </filter>
    <filter
       style="color-interpolation-filters:sRGB"
       inkscape:label="Invert"
       id="filter446">
      <feColorMatrix
         type="hueRotate"
         values="180"
         result="color1"
         id="feColorMatrix442" />
      <feColorMatrix
         values="-1 0 0 0 1 0 -1 0 0 1 0 0 -1 0 1 -0.21 -0.72 -0.07 2 0 "
         result="color2"
         id="feColorMatrix444" />
    </filter>
    <filter
       style="color-interpolation-filters:sRGB"
       inkscape:label="Invert"
       id="filter452">
      <feColorMatrix
         type="hueRotate"
         values="180"
         result="color1"
         id="feColorMatrix448" />
      <feColorMatrix
         values="-1 0 0 0 1 0 -1 0 0 1 0 0 -1 0 1 -0.21 -0.72 -0.07 2 0 "
         result="color2"
         id="feColorMatrix450" />
    </filter>
    <filter
       style="color-interpolation-filters:sRGB"
       inkscape:label="Invert"
       id="filter458">
      <feColorMatrix
         type="hueRotate"
         values="180"
         result="color1"
         id="feColorMatrix454" />
      <feColorMatrix
         values="-1 0 0 0 1 0 -1 0 0 1 0 0 -1 0 1 -0.21 -0.72 -0.07 2 0 "
         result="color2"
         id="feColorMatrix456" />
    </filter>
    <filter
       style="color-interpolation-filters:sRGB"
       inkscape:label="Invert"
       id="filter464">
      <feColorMatrix
         type="hueRotate"
         values="180"
         result="color1"
         id="feColorMatrix460" />
      <feColorMatrix
         values="-1 0 0 0 1 0 -1 0 0 1 0 0 -1 0 1 -0.21 -0.72 -0.07 2 0 "
         result="color2"
         id="feColorMatrix462" />
    </filter>
    <filter
       style="color-interpolation-filters:sRGB"
       inkscape:label="Invert"
       id="filter470">
      <feColorMatrix
         type="hueRotate"
         values="180"
         result="color1"
         id="feColorMatrix466" />
      <feColorMatrix
         values="-1 0 0 0 1 0 -1 0 0 1 0 0 -1 0 1 -0.21 -0.72 -0.07 2 0 "
         result="color2"
         id="feColorMatrix468" />
    </filter>
    <filter
       style="color-interpolation-filters:sRGB"
       inkscape:label="Invert"
       id="filter476">
      <feColorMatrix
         type="hueRotate"
         values="180"
         result="color1"
         id="feColorMatrix472" />
      <feColorMatrix
         values="-1 0 0 0 1 0 -1 0 0 1 0 0 -1 0 1 -0.21 -0.72 -0.07 2 0 "
         result="color2"
         id="feColorMatrix474" />
    </filter>
    <filter
       style="color-interpolation-filters:sRGB"
       inkscape:label="Invert"
       id="filter482">
      <feColorMatrix
         type="hueRotate"
         values="180"
         result="color1"
         id="feColorMatrix478" />
      <feColorMatrix
         values="-1 0 0 0 1 0 -1 0 0 1 0 0 -1 0 1 -0.21 -0.72 -0.07 2 0 "
         result="color2"
         id="feColorMatrix480" />
    </filter>
    <filter
       style="color-interpolation-filters:sRGB"
       inkscape:label="Invert"
       id="filter488">
      <feColorMatrix
         type="hueRotate"
         values="180"
         result="color1"
         id="feColorMatrix484" />
      <feColorMatrix
         values="-1 0 0 0 1 0 -1 0 0 1 0 0 -1 0 1 -0.21 -0.72 -0.07 2 0 "
         result="color2"
         id="feColorMatrix486" />
    </filter>
    <filter
       style="color-interpolation-filters:sRGB"
       inkscape:label="Invert"
       id="filter998">
      <feColorMatrix
         type="hueRotate"
         values="180"
         result="color1"
         id="feColorMatrix994" />
      <feColorMatrix
         values="-1 0 0 0 1 0 -1 0 0 1 0 0 -1 0 1 -0.21 -0.72 -0.07 2 0 "
         result="color2"
         id="feColorMatrix996" />
    </filter>
  </defs>
  <sodipodi:namedview
     pagecolor="#000000"
     bordercolor="#666666"
     borderopacity="1"
     objecttolerance="10"
     gridtolerance="10"
     guidetolerance="10"
     inkscape:pageopacity="0"
     inkscape:pageshadow="2"
     inkscape:window-width="1920"
     inkscape:window-height="1016"
     id="namedview4"
     showgrid="false"
     inkscape:zoom="0.70710678"
     inkscape:cx="897.41869"
     inkscape:cy="414.67242"
     inkscape:window-x="0"
     inkscape:window-y="27"
     inkscape:window-maximized="1"
     inkscape:current-layer="svg2" />
  <g
     id="g2005"
     inkscape:label="background"
     style="display:inline">
    <path
       inkscape:connector-curvature="0"
       id="path1058"
       d="m 50.13703,224.36524 395.5383,-178.21338 -24.02879,18.31053 -11.75,14.5 -5.5,14.5 -1.23093,20.86615 -11.76907,13.63385 -12.5,17.75 -1.5,23.75 6.25,18.75 12.5,25.25 30,20.75 16.25,10 17.25,41 23.25,22.25 11.5,7.25 18,12.75 19.5,40.75 21,19.75 18.5,12 L 182.9591,224.36524 Z"
       style="opacity:0.3;fill:#ffff00;stroke:none;stroke-width:1px;stroke-linecap:butt;stroke-linejoin:miter;stroke-opacity:1" />
    <path
       sodipodi:nodetypes="cccssssscccscscsssccssccccccscsscssssccscccscsscscscscssccssccsscssscsssssscsccscsscscssscccccccssccccccscscccccsscssccsccccscsccscscccsscscsccscccsscsccccccssccscccccssccscsscscscscccsccscccsccscscsccscsscccscccccccccccsccccsscccscscsssscccccccccccsccscccscccscccccccccscccscccsccsccssccccccsccscscsssccsccscccccccscsccscsccsccsccccsscscccssccsccccccsccsccsccccccccscccssscscccccccsssscssccccscsscccscsscccscscscsccssccccccssssccssscsscccccscscccccsccscsccscccccscccscsccccscccsscssccsccccsscssssccccsccssccccccccccsscccsscccccccscscccccscsscccccccsccccccssscccscscsscccssccccscccsccccccscss"
       inkscape:connector-curvature="0"
       id="path433"
       d="m 210.0696,517.84886 c -6.26831,-1.89919 -6.69479,-2.18121 -7.63407,-5.04801 -1.39473,-4.25691 -10.6041,-22.86709 -12.68148,-25.62655 -1.01776,-1.35195 -4.08325,-6.43576 -6.81219,-11.29737 -2.72894,-4.86161 -6.53231,-10.99309 -8.45194,-13.62551 -4.11634,-5.6448 -8.76848,-12.18109 -13.19192,-18.53474 -1.75451,-2.52011 -4.56382,-6.20994 -6.2429,-8.19961 -11.01932,-13.05765 -20.5474,-32.72646 -22.785,-47.03508 -0.78977,-5.05027 -0.75272,-6.32248 0.28846,-9.90399 0.65704,-2.26016 1.68814,-4.6029 2.29133,-5.20608 0.97993,-0.97994 0.76859,-1.18507 -1.98487,-1.92649 -4.96307,-1.33642 -10.02837,-4.2316 -13.94741,-7.97194 -3.83557,-3.66067 -5.9755,-6.96807 -18.4562,-28.52527 -0.691165,-1.19381 -2.950915,-4.93801 -5.021675,-8.32045 -4.68582,-7.65397 -12.41499,-23.44348 -14.47194,-29.56398 -5.50332,-16.37518 -4.79036,-27.66525 2.19517,-34.76183 3.27786,-3.32997 5.4066,-4.55407 9.44371,-5.43041 5.42049,-1.17663 4.14361,-15.28916 -2.44654,-27.03999 -1.69863,-3.02881 -5.04192,-7.56471 -7.42952,-10.07979 -4.25907,-4.48645 -4.38896,-4.55932 -6.87341,-3.85584 -1.39277,0.39436 -6.26165,1.55421 -10.81972,2.57743 -5.22606,1.17317 -9.71519,2.67729 -12.15256,4.07181 -4.82716,2.76182 -8.54518,2.94427 -10.41661,0.51115 -1.66756,-2.16807 -1.66087,-3.33563 0.0351,-6.11686 0.89282,-1.46415 2.16312,-2.40475 3.64904,-2.70194 2.41962,-0.48392 9.0858,-4.69763 8.44521,-5.33823 -0.97269,-0.97269 -9.00812,-2.26494 -11.74832,-1.88935 -4.70356,0.64469 -6.78768,-0.12112 -6.7749,-2.48944 0.006,-1.08674 0.48026,-2.78984 1.05421,-3.78468 0.57395,-0.99484 1.3493,-2.47365 1.72302,-3.28626 0.94368,-2.05197 5.96717,-5.39594 8.10605,-5.39594 0.97471,0 3.95209,0.62339 6.61638,1.38531 5.95607,1.70328 19.33092,1.57469 28.79476,-0.27684 7.36185,-1.4403 19.372985,-5.18295 26.549595,-8.27283 3.48652,-1.50112 6.38626,-2.24136 8.78,-2.24136 4.08434,0 10.41376,1.79859 13.30218,3.78001 1.08071,0.74135 3.68537,1.8525 5.78814,2.46923 6.16591,1.80843 8.66804,3.17261 12.5054,6.81802 3.50192,3.32676 3.77951,3.44573 8.6822,3.7209 2.85695,0.16036 6.24617,0.85637 7.77521,1.59673 6.1026,2.95488 11.36056,10.01099 11.3702,15.25864 0.005,2.92655 -2.73696,7.46373 -5.39858,8.93193 -1.19381,0.65852 -2.30422,1.27671 -2.46759,1.37376 -0.16336,0.097 0.19843,0.7482 0.80399,1.44703 3.10245,3.5803 5.00729,8.18783 5.41995,13.11008 0.41413,4.93966 0.36732,5.13014 -1.79078,7.28824 -1.21881,1.21881 -2.77204,2.21602 -3.45162,2.21602 -1.00881,0 -1.15992,0.46631 -0.82331,2.54062 0.90811,5.59602 11.21913,23.83459 17.78828,31.46468 l 2.1802,2.53231 -2.66939,-6.1499 c -2.51297,-5.78953 -2.66998,-6.59505 -2.67966,-13.74682 -0.009,-6.41904 0.23185,-8.04565 1.55137,-10.491 10.2022,-18.90682 46.17157,-13.46045 77.66345,11.75958 2.18864,1.75275 8.04913,5.81471 13.02331,9.02657 4.97418,3.21186 13.11374,8.51129 18.08792,11.7765 40.38034,26.50696 39.55858,25.90784 38.91277,28.36987 -0.29549,1.12651 0.0941,1.25895 3.07465,1.04534 2.44114,-0.17494 5.34451,0.41594 10.19611,2.07509 13.62275,4.65871 28.27838,13.77303 38.28334,23.80837 7.91134,7.93537 10.2315,11.85093 10.49064,17.70429 0.10736,2.42494 0.56544,6.19968 1.01796,8.38832 0.8411,4.06802 0.59738,8.41697 -0.83105,14.82905 -2.75112,12.34961 -14.56547,27.84455 -29.66319,38.90435 -4.33131,3.1729 -4.75748,3.70057 -3.98618,4.93562 0.475,0.76059 1.1109,1.38288 1.41311,1.38288 0.30221,0 0.54947,0.48838 0.54947,1.08528 0,0.67528 -0.68332,1.08527 -1.80879,1.08527 -0.99483,0 -1.81133,0.24419 -1.81443,0.54264 -0.007,0.64976 -3.51039,2.35143 -4.84146,2.35143 -0.51757,0 -0.94104,-0.48837 -0.94104,-1.08527 0,-0.59691 0.48838,-1.08528 1.08528,-1.08528 0.5969,0 1.08527,-0.45354 1.08527,-1.00787 0,-0.55433 0.53498,-1.21315 1.18884,-1.46406 0.65385,-0.25091 0.99656,-0.64847 0.76157,-0.88346 -0.23499,-0.23499 -1.52884,0.25356 -2.87521,1.08566 -2.09513,1.29487 -2.43537,1.89197 -2.36068,4.14294 0.0546,1.64407 -0.28995,2.77477 -0.91895,3.01614 -1.2759,0.48961 -2.39688,-1.23922 -1.88019,-2.89968 0.2167,-0.69638 0.26308,-1.26615 0.10308,-1.26615 -0.16002,0 -2.70522,1.17545 -5.65602,2.61212 -19.85646,9.66758 -44.81591,13.96135 -64.55489,11.10538 -11.0633,-1.60071 -22.56489,-7.26124 -28.53483,-14.04345 -2.27609,-2.58577 -3.11398,-3.08386 -4.68313,-2.78389 -3.39447,0.64889 -8.77693,-1.75312 -13.49419,-6.022 l -4.43438,-4.01288 v 5.77145 c 0,3.1743 0.49401,8.32955 1.0978,11.4561 2.67599,13.85685 3.44028,17.03507 4.74696,19.73959 0.76472,1.58279 1.40111,3.30051 1.41418,3.81715 0.0131,0.51664 2.10978,5.00913 4.65935,9.98331 2.54956,4.97418 5.87609,11.55285 7.39227,14.61927 1.86725,3.77642 3.17256,5.58561 4.04556,5.60725 3.46671,0.086 1.75748,6.07517 -3.08101,10.79601 -1.88534,1.83949 -3.7902,3.67011 -4.23303,4.06804 -0.44283,0.39794 -1.83541,1.95594 -3.09461,3.46225 -2.67681,3.20207 -11.18019,8.47578 -13.66645,8.47578 -0.94604,0 -2.46145,-0.69649 -3.36759,-1.54776 l -1.64751,-1.54775 -3.59786,1.54775 c -4.13876,1.78045 -4.91725,1.80523 -9.84126,0.31334 z m 8.36801,-4.57917 c 2.01626,-1.07907 1.76973,-1.85907 -1.67548,-5.30112 -3.92023,-3.91662 -6.62837,-7.79927 -11.42429,-16.37893 -2.11318,-3.78038 -4.59908,-7.8809 -5.52421,-9.11226 -0.92513,-1.23137 -1.68206,-2.48343 -1.68206,-2.78238 0,-0.29894 -0.62868,-1.42643 -1.39706,-2.50553 -0.76839,-1.07909 -2.60998,-4.38518 -4.09242,-7.34686 -1.48244,-2.96167 -3.40214,-6.5244 -4.26599,-7.91717 -0.86386,-1.39277 -4.1502,-7.56267 -7.30299,-13.71088 -5.08132,-9.90905 -6.38318,-11.83926 -11.46326,-16.996 -9.03651,-9.1729 -16.35798,-19.88074 -20.25668,-29.62593 -1.63399,-4.08433 -1.89402,-5.70663 -1.71593,-10.70534 l 0.2099,-5.89152 2.89406,-1.65897 c 4.2496,-2.43601 5.90929,-2.16031 11.27961,1.87371 4.32158,3.24624 6.86368,6.31395 13.12684,15.84096 1.80207,2.74118 7.03893,13.82796 7.55348,15.99125 0.23986,1.0084 0.74657,2.22828 1.12602,2.71083 0.37945,0.48255 0.86265,2.78238 1.07378,5.11073 0.43187,4.76282 -0.66785,7.72003 -3.7818,10.16947 -1.15298,0.90694 -1.5519,1.63591 -1.06119,1.9392 0.43247,0.26727 1.56722,2.16533 2.52169,4.2179 1.58429,3.40703 3.43265,6.90356 11.53455,21.81987 7.21573,13.28479 7.77387,14.24779 14.68169,25.3312 0.49325,0.79141 1.58173,2.70637 2.41886,4.25548 1.94037,3.59065 6.32249,9.83535 7.90969,11.27159 0.67204,0.60814 2.94685,3.1406 5.05512,5.62769 2.10828,2.48709 4.27925,4.52198 4.82438,4.52198 0.54513,0 2.28054,-0.81395 3.85646,-1.80879 1.57592,-0.99483 3.11597,-1.81902 3.42233,-1.83152 0.30636,-0.0125 1.10551,-0.7781 1.77588,-1.70133 1.17311,-1.61557 1.13838,-1.77621 -0.92512,-4.2796 -1.17919,-1.43056 -2.6361,-3.77882 -3.23758,-5.21835 -0.60147,-1.43953 -2.86884,-5.01783 -5.03859,-7.95177 -2.16975,-2.93394 -4.35132,-6.25035 -4.84793,-7.36979 -0.49661,-1.11944 -1.66424,-3.17489 -2.59475,-4.56766 -2.22588,-3.33172 -8.81271,-16.97019 -8.81271,-18.24732 0,-0.54903 -0.28902,-1.30754 -0.64226,-1.68557 -1.1886,-1.27205 -8.73236,-23.06494 -9.84546,-28.4422 -0.60635,-2.92921 -1.25899,-5.57911 -1.45031,-5.88868 -0.19133,-0.30957 -0.831,-2.85961 -1.42151,-5.66675 -0.96186,-4.57254 -1.54799,-9.41375 -4.02132,-33.2145 -1.09286,-10.51653 1.52203,-24.82319 5.1346,-28.09252 1.32723,-1.20112 1.52942,-1.21098 2.61295,-0.12747 1.05302,1.05304 1.06203,1.34713 0.0872,2.84571 -3.19405,4.91002 -4.4854,15.11776 -3.46072,27.35616 1.57524,18.81422 2.65388,25.72332 5.76067,36.89937 0.71903,2.58657 1.51937,5.92689 1.77852,7.42293 0.52673,3.04061 7.20435,21.69093 10.16527,28.39116 3.74668,8.47831 5.61251,12.31379 6.51139,13.38506 0.50084,0.5969 2.05832,3.271 3.46105,5.94243 1.40273,2.67144 4.03177,6.805 5.84231,9.1857 1.81052,2.38069 3.9343,5.72987 4.7195,7.44263 1.76264,3.84487 4.23379,6.56254 5.37987,5.91657 1.49064,-0.84017 4.22346,-3.47685 4.89578,-4.72355 0.46891,-0.86948 -0.37005,-3.14889 -3.06241,-8.32045 -8.99747,-17.28255 -10.59203,-20.56501 -13.13349,-27.03579 -4.78785,-12.19026 -7.12178,-24.97769 -7.19402,-39.41549 -0.0389,-7.78335 -0.21684,-8.95816 -1.71838,-11.34771 -2.04009,-3.24658 -6.92655,-14.09312 -8.57769,-19.04 -4.47729,-13.41416 -5.66406,-28.66153 -2.74055,-35.21004 l 1.50686,-3.37531 -1.91458,-0.48052 c -1.05301,-0.26429 -2.12859,-0.82682 -2.39018,-1.25006 -0.30612,-0.49531 -1.72669,-0.05 -3.98658,1.24966 -18.14181,10.43341 -35.96475,16.95478 -50.4111,18.44527 -4.44795,0.45891 -8.90114,1.10873 -9.89598,1.44404 -0.99484,0.33531 -2.69475,0.80276 -3.77758,1.03877 -3.36311,0.73302 -5.1583,5.97974 -4.17682,12.20734 2.27877,14.45884 9.06056,28.82399 20.97471,44.42848 6.19315,8.11144 10.26745,13.7224 13.0263,17.93925 1.39277,2.12883 4.44903,6.37137 6.79169,9.42788 2.34266,3.05651 5.36295,7.63685 6.71176,10.17854 1.34881,2.54169 3.25768,5.80792 4.24194,7.25831 0.98427,1.4504 1.78957,2.91871 1.78957,3.26291 0,0.34421 1.39966,2.65925 3.11037,5.14453 1.7107,2.48529 4.83202,8.10012 6.93626,12.47739 2.10425,4.37728 4.65083,9.66886 5.65907,11.75907 1.42233,2.94866 2.34061,3.94748 4.09737,4.45673 3.14351,0.91124 6.79919,0.92761 8.46166,0.0379 z m 81.81407,-68.7264 c 14.98794,-1.48276 26.34831,-4.44164 39.62711,-10.32112 14.68434,-6.50182 28.58554,-16.03581 36.65354,-25.13843 1.56213,-1.76246 3.58383,-4.02436 4.49267,-5.02646 3.23331,-3.56508 10.2856,-16.78255 10.2856,-19.27736 0,-0.14894 -1.8721,-0.27466 -4.16022,-0.27938 -10.54425,-0.0218 -17.40981,-4.40623 -15.35648,-9.80692 0.55945,-1.47145 1.11882,-1.8093 2.69528,-1.62791 1.66687,0.1918 1.98932,0.57354 1.98932,2.35515 0,3.1328 2.97119,4.55931 10.12924,4.8632 l 5.78813,0.24572 v -5.57228 c 0,-3.06476 -0.32558,-5.87204 -0.72351,-6.23839 -0.44572,-0.41034 -3.64047,-0.013 -8.32045,1.03482 -4.17831,0.9355 -10.60121,2.362 -14.27311,3.17 -9.67946,2.12994 -29.88218,3.15746 -51.26393,2.6073 -22.703,-0.58415 -37.80521,-2.36822 -51.96932,-6.13929 -6.04227,-1.60871 -13.06097,-2.01533 -13.81197,-0.80019 -0.24594,0.39794 0.0295,0.72352 0.61207,0.72352 1.96439,0 4.5891,5.84857 5.54541,12.35665 0.90225,6.14028 0.81474,10.57329 -0.61305,31.05437 -0.53656,7.69671 -0.91734,9.57513 -2.55611,12.60966 l -1.92562,3.5657 3.97526,3.85035 c 4.29591,4.16091 5.90953,4.85641 5.15624,2.22244 -4.08995,-14.30109 -0.15536,-31.77424 7.53527,-33.46339 5.00749,-1.09983 6.94255,2.19536 2.15844,3.67556 -2.0616,0.63786 -2.9208,1.56488 -4.69405,5.06462 -2.05546,4.05669 -2.17005,4.74425 -2.16119,12.96605 0.006,5.35495 0.37932,9.73851 0.97475,11.43855 0.53096,1.516 1.03651,3.24096 1.12344,3.83324 0.0869,0.59229 1.00214,1.51481 2.03379,2.05004 2.14697,1.11386 12.68571,3.71636 13.15097,3.24759 0.16973,-0.17102 -0.49128,-4.21793 -1.4689,-8.99314 -2.20413,-10.76602 -2.09197,-19.1134 0.32949,-24.52419 1.77705,-3.97083 3.32573,-5.44488 5.75619,-5.47876 2.5126,-0.035 2.85504,2.02808 0.63836,3.84588 -4.6015,3.7735 -5.3954,11.76114 -2.65429,26.70562 l 1.67739,9.1451 2.59979,0.27705 c 1.42988,0.15237 2.80947,0.33177 3.06577,0.39867 0.25628,0.0669 3.83769,-0.21194 7.95868,-0.61964 z m 2.88691,-6.8966 c -3.6162,-4.59726 -5.15958,-16.31276 -3.08357,-23.40682 1.58222,-5.40672 7.08486,-9.41632 8.36051,-6.09203 0.30782,0.80218 -0.24009,1.85295 -1.62644,3.11919 -4.11244,3.75613 -4.77964,13.3536 -1.53181,22.03424 2.1532,5.75493 0.94279,8.23746 -2.11869,4.34542 z m 26.8633,-1.55371 c -1.39019,-0.51023 -4.57412,-7.27724 -6.05812,-12.8757 -1.50505,-5.67788 -1.80148,-15.54118 -0.57299,-19.06523 0.59746,-1.71389 1.23061,-2.27852 2.55502,-2.27852 2.13068,0 2.96582,1.74757 1.61537,3.38023 -0.71325,0.8623 -0.93775,3.15748 -0.81298,8.31171 0.16939,6.9973 0.53174,8.53922 4.26081,18.13072 1.32631,3.4114 0.94582,5.1062 -0.98711,4.39679 z m 21.66881,-16.14214 c -5.57873,-3.00262 -8.0715,-5.17053 -10.13295,-8.81243 -3.00246,-5.30437 -4.25627,-11.29178 -3.14281,-15.00815 0.9292,-3.10139 3.06788,-4.37794 4.8528,-2.89659 0.93903,0.77933 0.93487,1.08685 -0.0347,2.56663 -1.58276,2.41561 -1.36552,5.39869 0.78424,10.76869 1.9796,4.94495 4.65359,7.70793 9.86464,10.1929 2.66487,1.2708 3.80046,2.76001 3.04129,3.98838 -0.5911,0.95643 -2.51684,0.66222 -5.23249,-0.79943 z m 17.57263,-11.4608 c -3.29295,-1.06185 -12.01438,-6.81842 -13.61521,-8.98671 -4.33314,-5.86914 -5.38777,-13.40519 -2.33671,-16.69735 2.0404,-2.20163 2.75472,-2.34637 4.02516,-0.81559 0.74753,0.90072 0.66816,1.36824 -0.44021,2.59298 -1.75869,1.94333 -1.64987,5.98436 0.26155,9.71286 2.14007,4.17447 4.14557,5.83193 12.69378,10.49083 3.76106,2.04982 3.29921,4.95657 -0.58836,3.70298 z m -188.93232,20.08295 c 0.24653,-1.23267 0.25372,-3.10477 0.016,-4.16022 -0.58928,-2.6161 -5.84147,-15.58672 -7.36777,-18.19522 -3.6058,-6.1624 -9.89254,-14.61009 -11.93328,-16.03511 -1.27933,-0.89334 -2.48884,-1.83538 -2.68781,-2.09344 -0.19897,-0.25805 -1.08686,-0.85096 -1.97309,-1.31759 -1.35179,-0.71176 -1.84708,-0.61266 -3.07495,0.6152 -3.79031,3.79031 0.0879,15.90493 8.96911,28.01772 1.22586,1.67189 3.20557,4.40456 4.39938,6.07259 2.72722,3.81061 9.63169,9.33624 11.66671,9.33684 1.14041,3.4e-4 1.65323,-0.57835 1.98572,-2.24077 z m 67.48158,-2.46164 c 0.22906,-0.5969 0.83291,-1.08527 1.34189,-1.08527 2.89971,0 5.00619,-14.06192 5.03983,-33.64354 0.0212,-12.35627 -1.1998,-16.72756 -5.31922,-19.0428 -1.57355,-0.88439 -2.9944,-2.00808 -3.15745,-2.4971 -0.20538,-0.616 -1.74171,-0.8152 -5.00133,-0.64846 -2.58769,0.13237 -6.14194,-0.1439 -7.89832,-0.61395 -5.14491,-1.37688 -11.78809,-4.88239 -14.44263,-7.62118 -2.16048,-2.22906 -2.52556,-2.38293 -2.97211,-1.25271 -0.78215,1.9796 -0.70209,8.88541 0.10301,8.88541 0.3926,0 1.1692,1.0899 1.72579,2.422 2.31383,5.53778 8.87814,6.90042 17.9586,3.7279 6.01451,-2.10135 8.54249,-2.30342 8.54249,-0.68284 0,1.34527 -4.53259,3.46159 -10.91655,5.09709 -6.49712,1.66448 -11.60785,1.03559 -15.22831,-1.8739 -1.53771,-1.23573 -2.79582,-1.9415 -2.79582,-1.56838 0,1.72272 3.82528,15.47059 5.5677,20.01002 2.82604,7.36254 9.11118,18.16465 13.43664,23.09324 5.93028,6.75715 12.84168,10.35417 14.01579,7.29447 z m -8.76914,-5.1548 c -1.5074,-1.5074 -1.13897,-4.15941 0.62456,-4.49577 0.74869,-0.1428 2.11102,0.14163 3.02741,0.63206 0.91638,0.49044 2.40317,0.69896 3.30396,0.46341 1.58677,-0.41495 3.52189,0.52935 3.52189,1.71861 0,2.74283 -8.11433,4.04519 -10.47782,1.68169 z m -4.4411,-10.72792 c -0.64442,-1.67935 0.35568,-2.56696 2.89228,-2.56696 1.29705,0 4.05251,-0.50313 6.12322,-1.11806 4.07189,-1.20923 5.1799,-0.97774 5.1799,1.0822 0,2.88425 -13.16136,5.29746 -14.1954,2.60282 z m -2.08373,-9.59899 c -1.89973,-0.46281 -3.97934,-2.34094 -3.97934,-3.59381 0,-1.63018 1.82818,-1.84756 5.3843,-0.64023 4.31907,1.46636 7.67803,1.43983 10.87753,-0.0859 4.5887,-2.1882 5.5805,1.58576 1.03156,3.92526 -1.67588,0.86189 -10.34175,1.11879 -13.31405,0.39468 z m -7.58491,-9.78104 c -2.49651,-1.31142 -3.5682,-4.54041 -2.02058,-6.08802 1.4624,-1.4624 3.4556,-0.78587 3.4556,1.17288 0,1.99834 3.75492,1.98217 8.44134,-0.0363 7.19794,-3.10028 9.19368,-3.59802 10.23827,-2.55341 1.45631,1.4563 -0.36363,2.86382 -7.02411,5.43237 -7.09941,2.73783 -10.72981,3.3126 -13.09052,2.07252 z m 128.274,-20.48922 c 6.79122,-0.61954 12.62733,-1.29928 12.96912,-1.51052 0.3418,-0.21124 4.92028,-1.13454 10.17442,-2.05177 11.60031,-2.02511 13.35193,-2.66111 13.95582,-5.0672 0.67841,-2.70297 -0.79633,-5.58257 -5.45064,-10.64301 l -4.13311,-4.49376 -3.55944,2.96238 c -5.86302,4.87952 -18.40699,10.35405 -23.72462,10.35405 -3.42129,0 -6.03315,-1.95944 -5.26838,-3.95239 0.48039,-1.25185 2.32369,-1.49033 3.00453,-0.38871 1.75088,2.83299 16.29214,-2.87832 25.08282,-9.85168 l 1.93028,-1.53122 -4.83665,-3.67701 c -5.33058,-4.05252 -15.07295,-9.8361 -22.1142,-13.12815 -4.94997,-2.31429 -13.42886,-5.3929 -13.7312,-4.98566 -0.10359,0.13953 -0.8953,1.39324 -1.75934,2.78601 -3.0851,4.97292 -7.32817,8.68445 -13.12985,11.48505 -4.14974,2.00318 -11.68496,3.22829 -14.71817,2.39294 -1.36992,-0.37728 -5.653,-0.33124 -10.55619,0.11348 -14.71912,1.335 -31.31001,-1.26595 -42.0335,-6.58957 -2.83849,-1.40916 -3.97935,-2.39038 -3.97935,-3.42256 0,-1.9028 1.3022,-1.75381 9.40572,1.07612 7.7776,2.71611 21.06674,5.07425 28.57893,5.07129 17.07021,-0.007 33.50685,-6.667 38.09897,-15.43804 1.27056,-2.4268 0.56681,-3.55928 -3.59679,-5.78796 l -2.48798,-1.33177 -2.44116,2.42081 c -4.84675,4.80633 -13.77622,9.29816 -21.19564,10.66214 -4.10152,0.75402 -5.64812,0.381 -5.33025,-1.28561 0.15604,-0.81813 1.65046,-1.45484 4.91926,-2.0959 2.58233,-0.50643 6.07531,-1.56457 7.76219,-2.35143 1.68689,-0.78685 3.24625,-1.43065 3.46525,-1.43065 1.78888,0 10.57783,-7.52181 9.63974,-8.24993 -0.14007,-0.10873 -2.82372,-1.90492 -5.96366,-3.99152 -4.38855,-2.91636 -5.85025,-3.57103 -6.3197,-2.83049 -0.33589,0.52985 -0.61569,1.34017 -0.62178,1.80071 -0.0262,1.98153 -7.46072,7.46063 -13.04564,9.61441 -6.36331,2.45395 -8.10275,2.68094 -9.31853,1.21602 -1.02967,-1.24068 0.97391,-2.64352 5.7122,-3.99949 6.88868,-1.97136 13.52078,-6.81949 13.9089,-10.16757 0.17085,-1.47385 -1.08198,-2.57639 -8.67743,-7.63644 -11.12776,-7.41328 -12.41582,-8.11404 -13.05634,-7.10322 -0.27257,0.43015 -2.73208,1.86953 -5.46558,3.19862 -2.73351,1.32909 -5.45701,3.15977 -6.05223,4.0682 -1.8982,2.89701 -4.35329,1.74481 -3.50278,-1.6439 0.54023,-2.15246 4.95979,-5.18458 9.90831,-6.79779 l 3.6696,-1.19627 -6.66965,-4.44646 -6.66965,-4.44645 -2.38322,2.85253 c -1.31077,1.5689 -3.1098,5.05182 -3.99785,7.73984 -1.58062,4.78441 -2.55819,6.23638 -3.71668,5.5204 -2.67346,-1.65229 3.09009,-16.47354 6.62618,-17.03953 1.19632,-0.19149 0.70371,-0.8403 -2.68845,-3.54089 -5.90318,-4.69969 -8.18223,-6.08706 -8.73688,-5.31855 -0.26449,0.36647 -1.11572,1.01707 -1.89162,1.44578 -2.44602,1.35151 -3.96133,4.11312 -5.32873,9.71153 -0.9328,3.81912 -1.68533,5.49579 -2.54065,5.66073 -2.03816,0.39304 -2.20807,-1.89185 -0.5902,-7.93663 1.81892,-6.79593 4.4675,-10.74741 7.20376,-10.74741 1.68228,0 1.54882,-0.20025 -1.36506,-2.04817 -1.7763,-1.1265 -4.91673,-2.89555 -6.97874,-3.93124 l -3.74909,-1.88306 -2.83383,1.36915 c -3.80557,1.83866 -5.42951,5.33846 -5.50293,11.85956 -0.031,2.75246 -0.38193,5.10764 -0.77986,5.23373 -1.66812,0.52858 -2.77949,-1.24811 -3.08496,-4.9318 -0.43215,-5.21111 0.74092,-9.1235 3.81096,-12.71015 1.40567,-1.6422 2.26651,-3.16459 1.91298,-3.38309 -0.76761,-0.4744 -8.78569,-2.59823 -9.80911,-2.59823 -0.39391,0 -0.32551,0.3907 0.15201,0.86822 1.31299,1.31299 1.09415,1.74961 -1.70453,3.40087 -3.77104,2.22497 -5.69412,6.95875 -5.06956,12.47909 0.36647,3.23916 0.25808,4.2312 -0.46132,4.22273 -2.50063,-0.0294 -3.11088,-1.35853 -3.11088,-6.77516 0,-4.82538 0.22715,-5.70985 2.17055,-8.45156 1.1938,-1.68419 3.24751,-3.63479 4.56379,-4.33464 1.64757,-0.87602 2.11197,-1.44631 1.49053,-1.83038 -1.69904,-1.05007 -12.11669,-1.23792 -15.64408,-0.28211 -8.21883,2.22708 -11.87615,5.53557 -13.20729,11.94762 -1.96819,9.48075 2.78721,21.57185 13.54312,34.4348 6.17798,7.38821 7.26248,10.06821 4.30263,10.63263 -1.91025,0.36428 -9.80697,-3.67328 -18.20124,-9.30622 -35.09916,-23.55313 -64.61583,-36.83037 -84.78433,-38.13783 -9.637435,-0.62476 -16.586075,2.41271 -19.946245,8.71914 -2.2824,4.28367 -2.24818,13.89301 0.0765,21.48271 3.24139,10.58255 9.0422,23.16746 15.17396,32.92002 1.250975,1.98968 2.836315,4.75713 3.522975,6.1499 0.68666,1.39277 1.62611,3.02068 2.08767,3.61758 0.46157,0.5969 1.7212,2.71319 2.79919,4.70286 8.90491,16.436 15.27351,24.6652 21.07424,27.23114 17.11917,7.57263 43.10304,2.35962 73.17817,-14.68134 l 3.77642,-2.13978 -0.40996,-6.65204 c -0.46802,-7.59435 0.53656,-11.10363 3.65659,-12.77342 1.58456,-0.84803 2.1437,-0.84583 3.75171,0.0148 1.03929,0.55621 2.17801,1.76981 2.53048,2.69688 0.6018,1.58286 0.73895,1.61685 2.2507,0.55799 0.88542,-0.62017 2.2946,-1.12758 3.13153,-1.12758 1.5886,0 4.13172,2.34729 4.89923,4.52198 0.29106,0.82471 1.20267,1.26615 2.61467,1.26615 1.43729,0 2.43243,0.49445 2.95308,1.4673 0.4319,0.80701 1.10884,1.26732 1.5043,1.02291 1.07517,-0.66448 4.27299,1.69577 4.27299,3.15381 0,1.42183 2.40194,3.7617 3.86149,3.7617 2.56583,0 6.51971,7.45824 7.28769,13.74683 l 0.48596,3.97934 8.11013,0.0259 c 5.47462,0.0175 9.40328,0.42144 12.08947,1.24312 17.70806,5.41669 56.474,7.79244 84.875,5.20149 z m 24.42404,-10.93177 c -2.3176,-1.62331 -1.02838,-2.83819 3.99387,-3.76357 4.89431,-0.90181 6.08739,-0.70447 6.08739,1.00693 0,2.33785 -7.68068,4.43807 -10.08126,2.75664 z m -54.90529,-3.90054 c -1.18933,-0.4769 -1.61124,-1.14912 -1.44704,-2.30557 0.21816,-1.53638 0.57223,-1.63385 6.01993,-1.65713 5.54593,-0.0237 6.11808,-0.19021 13.67311,-3.97934 6.09317,-3.05594 9.03442,-5.07206 12.94313,-8.87201 4.69845,-4.56771 6.88543,-5.64094 7.53272,-3.69657 0.14497,0.43546 -1.82626,3.04898 -4.38052,5.80782 -3.72311,4.0213 -6.08568,5.76994 -11.91315,8.81743 -11.67663,6.10633 -17.84224,7.72424 -22.42818,5.88537 z m -21.69798,-3.39413 c 0.16646,-0.86437 1.27163,-1.45068 3.48976,-1.85142 6.49163,-1.17278 12.69667,-2.95922 15.17849,-4.3699 6.5081,-3.69925 12.80835,-8.2672 15.50173,-11.23943 6.17496,-6.8143 7.55598,-8.04442 9.03118,-8.04442 2.77971,0 1.58707,2.04567 -5.17314,8.87318 -11.6763,11.79255 -23.27622,17.89695 -34.0088,17.89695 -3.66885,0 -4.22888,-0.17626 -4.01922,-1.26496 z m -30.76639,-46.96951 c -1.32439,-1.3244 -0.32321,-3.07442 2.23085,-3.8994 2.91243,-0.94075 10.85236,-5.48097 14.11054,-8.06873 1.49685,-1.18884 2.19762,-1.37584 2.82074,-0.75271 1.90072,1.90071 -2.99071,6.4228 -11.492,10.62425 -5.21881,2.57921 -6.76491,3.00182 -7.67013,2.09659 z m -26.96039,59.16878 c 1.28513,-0.50409 1.29556,-0.60969 0.15577,-1.57707 -3.50815,-2.97749 -3.52,-3.00455 -3.1251,-7.1412 0.35309,-3.69861 0.32444,-3.80371 -0.35345,-1.29675 -1.13609,4.20148 -2.83704,4.65544 -6.05871,1.61702 -2.75775,-2.6009 -2.99583,-4.10587 -1.37412,-8.68621 0.44688,-1.26214 0.35705,-1.23903 -0.70299,0.18088 -1.31907,1.76688 -3.70979,2.1756 -4.232,0.72352 -0.17888,-0.49742 -0.16341,-1.96254 0.0344,-3.25583 0.45631,-2.98362 -0.87292,-3.10379 -1.89518,-0.17133 -0.84397,2.42103 -2.67476,3.49832 -3.88629,2.2868 -0.43443,-0.43443 -0.73467,-2.83814 -0.6672,-5.34158 0.0675,-2.50343 -0.18922,-5.03154 -0.57042,-5.61801 -1.07567,-1.6549 -4.11481,1.60663 -4.65709,4.99788 -0.55719,3.48447 -2.12957,4.97631 -3.79136,3.59714 -0.88195,-0.73196 -1.07371,-1.77109 -0.78409,-4.24881 0.42017,-3.59446 -0.0625,-7.25924 -0.95605,-7.25924 -1.47281,0 -2.14581,4.65073 -1.3512,9.33736 1.04229,6.14741 2.66737,8.02705 6.93997,8.02705 3.43228,0 4.69319,1.34458 3.08175,3.28625 -0.75239,0.90658 -0.6093,1.42297 0.82345,2.97142 5.33585,5.76676 17.73152,9.78235 23.36994,7.57071 z m 85.10883,-36.95237 c 2.27385,-2.27713 4.55518,-5.81787 4.0646,-6.30846 -0.20142,-0.20142 -0.85753,0.58386 -1.45801,1.74506 -0.60049,1.16121 -2.4152,3.3069 -4.03269,4.76822 -1.6175,1.46131 -2.94091,2.86044 -2.94091,3.10916 0,0.57444 1.99893,-0.94248 4.36701,-3.31398 z M 183.82428,287.73873 c -8.17617,-9.80508 -17.99422,-27.59635 -18.72815,-33.93722 -0.40398,-3.49021 -0.61477,-3.81291 -3.27399,-5.01205 -3.48923,-1.57342 -9.65995,-8.13177 -12.3781,-13.15565 -1.11137,-2.05413 -2.21949,-5.45578 -2.46247,-7.55923 -0.40726,-3.52552 -0.78657,-4.14887 -4.85273,-7.97473 -5.17139,-4.86577 -13.63057,-9.2922 -21.90749,-11.46348 -3.11079,-0.81606 -6.79552,-1.79052 -8.18829,-2.16547 -5.57363,-1.50048 -19.302735,-1.67545 -26.996645,-0.34407 -10.1649,1.75898 -9.9978,1.66738 -6.69073,3.66749 3.75294,2.26978 10.47766,9.32557 13.72254,14.39814 6.09259,9.52425 8.800295,18.30615 8.260085,26.78998 l -0.30186,4.74067 h 3.03105 c 3.48983,0 16.2195,2.44257 21.16987,4.06208 16.14628,5.28225 35.32681,14.78939 56.52108,28.01561 2.97421,1.85605 5.52779,3.37464 5.67462,3.37464 0.14683,0 -1.02262,-1.54652 -2.59879,-3.43671 z M 171.099,244.37044 c 1.80346,-7.18552 -8.10646,-20.41647 -16.43213,-21.93893 -2.45832,-0.44953 -3.00377,-0.31328 -3.66084,0.91446 -1.49383,2.79126 1.09026,9.67597 5.60055,14.9213 6.34865,7.3833 13.42336,10.36266 14.49242,6.10317 z m -2.74453,-22.33012 c 2.67819,-1.07159 4.454,-3.38874 4.454,-5.81175 0,-2.07935 -2.87594,-6.69026 -5.54525,-8.89053 -2.9156,-2.40328 -9.11385,-4.19715 -11.92274,-3.45062 -3.42085,0.90916 -3.57248,1.37235 -1.7006,5.19471 0.96742,1.97545 1.76912,4.61166 1.78156,5.85824 0.0201,2.016 0.45421,2.47768 3.92717,4.17685 2.1475,1.05067 4.30365,2.39121 4.79145,2.97897 1.0819,1.3036 0.80768,1.30724 4.21441,-0.0559 z M 52.811285,217.97088 c 2.52793,-1.26494 7.2009,-2.86798 10.38437,-3.56231 4.96207,-1.08226 5.35667,-1.27031 2.76487,-1.31769 -3.39234,-0.062 -5.29718,-1.49111 -5.29718,-3.97416 0,-2.71913 2.24197,-3.94042 10.14024,-5.52378 4.13601,-0.82914 7.73467,-1.64019 7.99702,-1.80233 0.26234,-0.16214 3.43791,-0.63022 7.0568,-1.04017 3.6354,-0.41183 10.01232,-1.86978 14.250385,-3.25807 9.03634,-2.96008 9.43024,-3.15857 8.37072,-4.21809 -0.4326,-0.4326 -0.78656,-1.3726 -0.78656,-2.08888 0,-1.70765 -0.94169,-1.62677 -6.14989,0.52824 -2.387615,0.98792 -8.248095,2.84166 -13.023315,4.11943 -8.34502,2.23298 -9.23039,2.32412 -22.79772,2.34682 l -14.11553,0.0236 -2.00189,2.29179 -2.00189,2.29179 4.75854,0.5096 c 5.36774,0.57483 6.85606,1.62147 6.85606,4.82143 0,2.8218 -3.88894,6.62907 -9.30398,9.10861 -2.79205,1.27848 -3.60226,1.95001 -2.89407,2.39872 0.54094,0.34274 1.03152,0.62815 1.09016,0.63425 0.0587,0.006 2.17494,-1.02388 4.70286,-2.28882 z m 97.834795,1.36066 c 0.25128,0.25129 0.45153,-0.9811 0.44498,-2.73864 -0.0142,-3.81151 -2.46713,-8.55873 -5.0636,-9.79971 -9.35633,-4.47185 -10.70187,-4.94067 -14.95761,-5.21166 -2.7083,-0.17245 -4.56645,-10e-4 -4.56645,0.42089 0,1.3121 5.76082,4.54121 9.59233,5.37678 4.64976,1.01401 6.23145,2.2168 4.94829,3.76291 -0.73966,0.89125 -0.23845,1.72571 2.95622,4.92179 2.74734,2.74854 4.18161,3.70026 5.01792,3.32967 0.64406,-0.2854 1.37662,-0.31331 1.62792,-0.062 z m -28.81266,-17.74673 v -2.76859 l -3.99578,-0.75062 c -3.41098,-0.64076 -4.55903,-0.54289 -7.84418,0.66871 -2.11661,0.78062 -3.64264,1.62506 -3.39117,1.87653 0.25146,0.25147 3.77394,1.1625 7.82773,2.02451 4.05378,0.86202 7.37792,1.60122 7.38696,1.64268 0.009,0.0415 0.0164,-1.17049 0.0164,-2.69322 z m 27.09899,0.69705 c 0,-1.25163 -7.1665,-7.28735 -9.16233,-7.71664 -4.06015,-0.87331 -8.62845,-2.73093 -12.14032,-4.93665 -6.03389,-3.78973 -16.88276,-3.41699 -15.36891,0.52804 0.2546,0.66347 1.04005,1.39657 1.74547,1.62912 0.70541,0.23255 2.30852,0.87633 3.56246,1.43062 1.25394,0.5543 3.57455,1.00782 5.1569,1.00782 1.67469,0 3.25343,0.45354 3.77772,1.08527 0.49538,0.5969 1.77848,1.08528 2.85133,1.08528 2.64554,0 9.17166,1.9897 12.70427,3.87331 4.38088,2.33592 6.87341,3.0662 6.87341,2.01383 z M 46.362805,198.20351 c 0.29236,-0.39793 0.53655,-0.98987 0.54264,-1.31542 0.0178,-0.95239 -4.25803,2.36131 -5.11632,3.96503 -0.72547,1.35556 -0.60508,1.33848 1.62939,-0.23119 1.327,-0.9322 2.65193,-2.02049 2.94429,-2.41842 z M 331.98221,446.8617 c 0,-1.75067 1.98617,-3.94705 3.00172,-3.31941 0.39298,0.24288 0.54781,0.876 0.34407,1.40694 -0.20374,0.53095 0.0182,1.1046 0.49332,1.2748 1.19048,0.42651 0.50906,1.02014 -1.85093,1.61245 -1.68119,0.42196 -1.98818,0.27144 -1.98818,-0.97478 z m 6.07706,-3.58015 c 0.0401,-1.08699 0.44858,-1.90536 0.90783,-1.81859 0.45926,0.0868 1.23168,-0.32022 1.7165,-0.9044 1.36928,-1.64987 2.15136,-1.26246 2.15136,1.06571 0,2.32327 -0.18531,2.5222 -2.9669,3.18516 -1.68726,0.40213 -1.87409,0.24431 -1.80879,-1.52788 z m 5.92684,-1.50799 c -0.2097,-0.33931 0.0863,-1.23466 0.65781,-1.98968 0.98454,-1.30068 1.04029,-1.26828 1.0621,0.61693 0.0221,1.90965 -0.92226,2.66337 -1.71991,1.37275 z m 2.28606,-2.65617 c -0.64381,-3.36785 1.65407,-3.19796 2.68012,0.19815 0.39275,1.29996 0.2075,1.62791 -0.91961,1.62791 -0.93455,0 -1.52939,-0.61699 -1.76051,-1.82606 z"
       style="display:inline;fill:#000000;stroke-width:0.72351694;filter:url(#filter1312)" />
    <path
       inkscape:connector-curvature="0"
       id="path435"
       d="M 156.67531,495.23668 H 278.02202"
       style="display:inline;fill:#ffff00;stroke:#f2ff00;stroke-width:12;stroke-linecap:butt;stroke-linejoin:miter;stroke-miterlimit:4;stroke-dasharray:none;stroke-opacity:1;filter:url(#filter1306)" />
    <text
       xml:space="preserve"
       style="font-style:normal;font-variant:normal;font-weight:normal;font-stretch:normal;font-size:40px;line-height:1.25;font-family:times;-inkscape-font-specification:times;letter-spacing:0px;word-spacing:0px;display:inline;fill:#000000;fill-opacity:1;stroke:none;filter:url(#filter1300)"
       x="-681.45593"
       y="770.02802"
       id="text225"
       transform="rotate(-90,-285.98994,41.163676)"><tspan
         sodipodi:role="line"
         id="tspan223"
         x="-681.45593"
         y="770.02802"
         style="font-size:24px;fill:#000000">avant</tspan></text>
    <text
       id="text229"
       y="478.70514"
       x="467.00363"
       style="font-style:normal;font-variant:normal;font-weight:normal;font-stretch:normal;font-size:40px;line-height:1.25;font-family:caladea;-inkscape-font-specification:caladea;letter-spacing:0px;word-spacing:0px;display:inline;fill:#000000;fill-opacity:1;stroke:none;filter:url(#filter1294)"
       xml:space="preserve"><tspan
         y="478.70514"
         x="467.00363"
         id="tspan227"
         sodipodi:role="line"
         style="font-style:normal;font-variant:normal;font-weight:normal;font-stretch:normal;font-size:24px;font-family:times;-inkscape-font-specification:times;fill:#000000">gauche</tspan></text>
    <path
       style="display:inline;fill:none;stroke:#000000;stroke-width:3;stroke-linecap:butt;stroke-linejoin:miter;stroke-miterlimit:4;stroke-dasharray:none;stroke-opacity:1;filter:url(#filter1288)"
       d="m 435.79052,441.26749 v 30.67375 h 27.26556"
       id="path231"
       inkscape:connector-curvature="0" />
    <path
       sodipodi:nodetypes="cc"
       inkscape:connector-curvature="0"
       id="path1412"
       d="M 50.13703,224.36524 H 182.9591"
       style="display:inline;fill:none;stroke:#fff803;stroke-width:8;stroke-linecap:butt;stroke-linejoin:miter;stroke-miterlimit:4;stroke-dasharray:none;stroke-opacity:1" />
    <path
       sodipodi:nodetypes="ccccccccscccccccsccccscsccccccccscssccccscscssccccsccccccccccccssccccsccscssccscscsccscccsccccccccccccccccccscssccccscccccccccsccsssscccsccccsccccsccsccsccsccscccsccsccscscsccccsccssccsccscsscccccccssscccsscsccccccccccsssccsscssscssccccsssccsccccccccscsscccccccsccccccccccccccccsscccscsccsscccsccsscscccccscccccssssssscssccsccscccccscsccssscsscsssccccccscccccsscccsccccccscccccssccccccsscsscscccsccscccccccccccsscccccccscsssccsccccscccccsccccccscccccccsscccsccscccsccssccccsccccccccccccccccsccccccccscccsccsccsccccccsccccccccccccccscscsscsscccccccscssscccccccsccccccccccccccassccccccccccccccccccssc"
       inkscape:connector-curvature="0"
       id="path1002"
       d="m 585.37871,407.83918 c -14.055,-3.74588 -35.2795,-16.51624 -45.3596,-27.29195 -5.7522,-6.14905 -13.1885,-16.65169 -16.7939,-23.71869 -5.2764,-10.34216 -8.4691,-17.10594 -10.5558,-22.36231 -1.8532,-4.66827 -3.4655,-6.75587 -7.9155,-10.24937 -3.0736,-2.41289 -6.1133,-4.38735 -6.755,-4.38769 -0.6416,-3.5e-4 -1.3166,-0.33813 -1.5,-0.75063 -0.1833,-0.4125 -2.9208,-2.08422 -6.0833,-3.71493 -3.1625,-1.6307 -5.75,-3.20835 -5.75,-3.50588 0,-0.29753 -1.2769,-1.10617 -2.8375,-1.79697 -11.1685,-4.94368 -32.5849,-36.04885 -39.2619,-57.0239 -2.6557,-8.34286 -3.8536,-9.51214 -16.9595,-16.5541 -7.4307,-3.99266 -21.1752,-14.04056 -30.595,-22.36651 -1.8589,-1.64296 -3.819,-4.84092 -4.7733,-7.78771 -0.8906,-2.75 -4.0439,-10.4 -7.0073,-17 -6.76,-15.05555 -8.2565,-22.78708 -6.6891,-34.55706 1.6778,-12.59953 5.3445,-19.24922 17.0343,-30.89212 l 9.5893,-9.55082 0.055,-12.5 c 0.048,-10.94749 0.3338,-13.03543 2.3015,-16.81101 6.7243,-12.90255 16.6748,-24.49014 25.4273,-29.61078 19.9044,-11.6451 37.9533,-20.065296 48.2165,-22.494066 4.95,-1.17141 10.575,-2.5498 12.5,-3.06309 1.925,-0.5133 5.8814,-1.45244 8.792,-2.08698 4.3694,-0.95257 5.9356,-1.92361 8.9832,-5.56945 5.0677,-6.06268 9.3603,-8.81528 18.7248,-12.00738 7.0407,-2.3999596 9.5589,-2.7339496 21,-2.7852096 11.8382,-0.053 13.4418,0.16021 17.9436,2.38596 5.2918,2.6164096 14.2581,11.3104396 17.5758,17.0420096 1.9965,3.4492 5.2468,10.18363 9.17,18.999996 2.5833,5.80538 3.9231,8.48696 6.9946,14 1.3789,2.475 5.3241,9.81988 8.7671,16.32196 8.5896,16.22157 16.7525,27.4147 28.4237,38.97552 10.7655,10.6637 14.2713,12.91661 22.6252,14.53952 12.0148,2.33413 13.583,2.09917 28.9454,-4.337 13.78,-5.77323 14.6301,-6.30236 22.4913,-14 4.4935,-4.4 9.946,-10.7 12.1167,-14 2.1706,-3.3 4.1925,-6.225 4.4931,-6.5 1.2354,-1.13037 9.1893,-17.38206 10.8911,-22.25308 4.3555,-12.46639 8.3809,-21.38898 12.5731,-27.869466 2.4691,-3.8169 4.4893,-7.15587 4.4893,-7.41994 0,-1.02927 8.6079,-13.16421 11.9602,-16.86088 8.4137,-9.2779196 13.6828,-13.6345396 18.39,-15.2053696 9.2245,-3.07829 29.068,0.0103 35.0533,5.45598 1.1531,1.04912 3.4465,3.13297 5.0965,4.6307896 6.5539,5.94944 10.1832,6.4917 33.6533,5.0283 12.0374,-0.75055 12.8276,-0.68128 16.2321,1.42286 1.9684,1.21649 4.5718,3.60626 5.7854,5.31059 3.2165,4.51716 11.6084,12.84333 17.3434,17.20747 17.9723,13.676376 23.9413,20.858736 27.0534,32.552746 0.9514,3.575 2.1129,6.9275 2.5811,7.45 0.4682,0.5225 0.8591,2.7725 0.8687,5 0.028,6.64308 2.7842,17.65785 5.3736,21.47823 1.3315,1.96447 6.7363,8.07177 12.0107,13.57177 6.3821,6.6551 10.5628,12.00694 12.4988,16 7.8018,16.0921 10.3129,25.14002 10.1889,36.71272 -0.086,7.9978 -0.4634,9.69052 -3.8116,17.08238 -2.0441,4.51269 -5.9222,10.9049 -8.6181,14.2049 -4.7005,5.75376 -21.6523,22.85907 -37.9649,38.30864 -7.3282,6.94046 -10.5664,11.83117 -11.2615,17.00834 -0.2969,2.21103 -7.0449,16.13669 -8.3265,17.18302 -0.3368,0.275 -1.9233,2.43192 -3.5255,4.79316 -1.6022,2.36123 -3.4335,4.61123 -4.0696,5 -0.636,0.38876 -4.2515,4.30684 -8.0344,8.70684 -3.7829,4.4 -7.3503,8.29786 -7.9276,8.66192 -0.5773,0.36406 -4.6497,3.56822 -9.0497,7.12037 -4.4,3.55214 -10.7,7.92531 -14,9.71814 -21.1542,11.49273 -22.1481,12.32779 -26.0227,21.86329 -6.7018,16.49314 -20.2849,34.25486 -33.4773,43.77613 -12.3379,8.90458 -29.7213,17.49128 -40.5,20.00545 -7.8811,1.83829 -29.869,2.6506 -36,1.32997 -12.7998,-2.75712 -15.4004,-3.44612 -19.3146,-5.11738 -2.373,-1.01322 -5.298,-2.05177 -6.5,-2.30791 -1.202,-0.25614 -4.8854,-1.21363 -8.1854,-2.12776 -3.3,-0.91414 -9.825,-1.71981 -14.5,-1.79038 -7.353,-0.111 -10.3892,0.44478 -22.5,4.11871 -28.6152,8.68069 -47.9377,10.95113 -61.7869,7.26009 z m 29.7869,-4.59699 c 9.4858,-1.57099 20.3075,-3.93791 24.5,-5.35862 15.0408,-5.09691 27.852,-7.25398 35.7075,-6.01219 5.8661,0.92731 19.1446,4.53309 23.7263,6.44291 11.0836,4.62002 13.644,5.01425 32.5662,5.01425 21.4973,0 23.759,-0.46378 39.5,-8.09998 16.379,-7.94567 17.2894,-8.57452 30.2585,-20.90002 7.3709,-7.00508 14.2415,-15.32021 14.2415,-17.23568 0,-0.34948 0.8258,-1.56442 1.8351,-2.69987 1.0092,-1.13545 2.8685,-4.53945 4.1316,-7.56445 7.2174,-17.28421 7.6118,-17.71997 23.451,-25.9069 14.8522,-7.67674 22.2724,-13.10027 32.0823,-23.44927 4.95,-5.22202 9.4637,-10.09066 10.0303,-10.81921 0.5667,-0.72854 3.6485,-4.61868 6.8486,-8.64476 5.5327,-6.96096 9.1942,-14.20154 12.2275,-24.17986 1.4639,-4.81579 7.7954,-12.30032 17.3936,-20.56118 16.8242,-14.48 33.2168,-32.08375 37.1043,-39.84583 4.9239,-9.83108 6.21,-15.22935 5.5987,-23.49904 -0.5021,-6.79207 -3.6983,-18.43877 -6.4941,-23.66427 -0.5679,-1.06132 -1.8836,-4.04925 -2.9239,-6.63984 -1.2307,-3.06498 -4.8914,-7.83029 -10.4804,-13.64306 -16.4117,-17.06875 -18.6218,-20.98705 -20.6705,-36.64678 -1.1775,-8.99995 -4.3584,-19.50075 -7.5646,-24.97173 -2.4432,-4.16894 -12.8601,-14.05702 -21.0695,-19.99986 -2.2,-1.592586 -8.5972,-7.600176 -14.2159,-13.350176 -9.9177,-10.14938 -10.352,-10.45974 -14.8761,-10.63191 -2.5631,-0.0975 -7.1909,0.20726 -10.2841,0.67733 -3.0931,0.47007 -9.5028,0.87608 -14.2437,0.90224 -9.8243,0.0542 -13.3985,-1.29517 -20.8802,-7.8831 -2.475,-2.17934 -7.1008,-5.1505096 -10.2796,-6.6026096 -4.9284,-2.25132 -7.1524,-2.64018 -15.1,-2.64018 -8.7073,0 -9.5768,0.18986 -13.2203,2.88674 -7.0444,5.2140896 -23.4001,23.8666296 -23.4001,26.6860696 0,0.36202 -2.0798,3.7867 -4.6218,7.61039 -2.542,3.823686 -5.5068,9.284206 -6.5885,12.134476 -1.0817,2.85028 -2.3026,5.63232 -2.7132,6.18232 -0.4105,0.55 -1.987,4.6 -3.5034,9 -2.6848,7.79038 -11.5745,24.42845 -17.8989,33.5 -3.6807,5.27945 -19.2922,21 -20.8543,21 -0.9787,0 -4.8789,1.72406 -19.3324,8.54572 -2.7569,1.30117 -5.9069,2.40411 -7,2.45097 -1.0931,0.0469 -3.6832,0.22457 -5.7558,0.39489 -4.8989,0.40259 -17.267,-1.63118 -21.7317,-3.57346 -10.6419,-4.6296 -33.3487,-29.73241 -41.5701,-45.95644 -1.3155,-2.59608 -2.816,-4.98228 -3.3344,-5.30268 -0.5184,-0.32039 -1.7183,-2.93973 -2.6665,-5.82076 -0.9481,-2.88104 -2.0724,-5.46806 -2.4983,-5.74895 -0.9096,-0.59987 -11.0578,-20.89657 -12.9945,-25.989286 -4.3261,-11.37593 -14.5085,-24.7051 -21.6264,-28.30978 -8.989,-4.5522596 -31.202,-3.5204 -43.3098,2.01187 -1.925,0.87957 -6.2,4.39025 -9.5,7.80151 -5.3892,5.57092 -6.6617,6.3599 -12.5,7.75047 -33.6137,8.00612 -28.463,6.27198 -47.9151,16.131846 -7.4717,3.78726 -15.5199,8.17476 -17.885,9.75 -2.3651,1.57524 -4.6292,2.86408 -5.0313,2.86408 -1.5181,0 -12.0692,11.73431 -15.5877,17.33564 -6.1412,9.77677 -6.9412,12.67239 -6.2877,22.75965 0.8072,12.45953 -0.7012,16.56284 -8.2142,22.34393 -3.1461,2.42087 -7.0146,6.1249 -8.5967,8.23118 -1.5821,2.10628 -3.1357,4.0546 -3.4525,4.3296 -3.2122,2.78851 -6.4417,11.88448 -7.456,21 -0.8023,7.21005 1.5178,19.86181 5.0431,27.5 1.523,3.3 2.6874,7.0125 2.5873,8.25 -0.1,1.2375 0.2698,2.25 0.8217,2.25 1.5183,0 4.9661,6.17469 4.9704,8.90139 0.01,4.38193 20.6792,22.34445 33.4652,29.07831 14.5603,7.66837 17.6919,10.56721 18.9579,17.54899 0.2791,1.53897 0.9739,3.2646 1.544,3.83472 0.5701,0.57013 1.0366,1.6238 1.0366,2.34149 0,2.41288 10.8665,23.17937 14.0211,26.7951 0.9597,1.1 2.443,3.3829 3.2962,5.07312 3.7764,7.48167 14.698,16.49403 30.1827,24.90636 10.3651,5.63101 16.0521,10.40208 18.5001,15.52052 9.0221,18.86395 16.7439,33.46169 20.5316,38.81412 2.4576,3.47276 4.4683,6.73526 4.4683,7.25 0,0.51473 0.3375,0.93978 0.75,0.94455 0.4125,0.005 2.4262,1.59748 4.475,3.53935 4.0884,3.87523 12.4772,10.45198 13.3317,10.45198 0.2967,0 2.8803,1.49371 5.7414,3.31936 6.7633,4.31568 16.1646,8.68783 21.2019,9.86018 12.0505,2.80454 14.3701,2.82265 30,0.23411 z m -27,-9.98477 c -9.9614,-2.89407 -12.0341,-3.69821 -14,-5.43154 -1.1,-0.96987 -3.35,-2.46985 -5,-3.3333 -1.65,-0.86344 -4.8217,-3.27858 -7.0482,-5.36697 -2.2265,-2.08839 -6.8346,-6.20027 -10.2402,-9.13752 -15.2485,-13.15157 -19.1682,-27.59831 -10.0598,-37.07745 3.3089,-3.44351 4.5489,-4.0821 7.9269,-4.0821 4.3403,0 20.7448,5.35428 28.5652,9.32341 11.197,5.6829 26.2161,25.99804 27.7428,37.52539 0.8015,6.0515 -1.2025,13.76953 -4.304,16.57634 -2.5716,2.32726 -7.718,2.70758 -13.5827,1.00374 z m 153.6844,-6.29378 c -2.4076,-1.52666 -4.0572,-6.06176 -3.6849,-10.1299 0.6069,-6.6301 7.0325,-18.57852 13.8591,-25.77111 8.6101,-9.07172 26.9243,-21.97385 31.4769,-22.17506 0.7345,-0.0325 4.5325,-1.63403 8.44,-3.55903 8.1682,-4.02402 11.397,-4.3321 15.0756,-1.43844 2.1804,1.71503 2.5432,2.66803 2.159,5.66954 -0.7001,5.46789 -3.2787,12.71456 -8.4701,23.80366 -7.1094,15.18602 -13.9329,20.85057 -35.3655,29.35872 -5.0194,1.57235 -21.8272,5.03291 -23.4904,4.24162 z m -64.1844,-42.18895 c -3.025,-0.47578 -6.625,-1.09863 -8,-1.38411 -1.375,-0.28548 -6.3155,-1.00678 -10.979,-1.60289 -8.696,-1.11159 -9.8512,-1.46232 -8.6785,-2.63501 0.6377,-0.6377 7.8541,0.24092 22.6575,2.75862 6.1001,1.03748 19.0303,1.37878 23.5,0.62029 1.1,-0.18666 3.2668,-0.87121 4.8151,-1.52123 1.5483,-0.65001 3.2789,-1.18184 3.8457,-1.18184 0.5669,0 2.2251,-0.60614 3.6849,-1.34699 1.4599,-0.74084 4.8151,-2.42834 7.4561,-3.75 3.2507,-1.62678 5.7578,-3.89064 7.7614,-7.00836 1.6278,-2.53295 3.8331,-5.39577 4.9006,-6.36184 2.2697,-2.05411 4.4846,-11.51131 3.5983,-15.36461 -2.5099,-10.91228 -9.1123,-15.79946 -25.9088,-19.17816 -2.6656,-0.53622 -6.1876,-2.10333 -7.8267,-3.48249 -3.0538,-2.56961 -4.5775,-2.7706 -22.8266,-3.01105 -2.475,-0.0326 -5.0004,-0.37085 -5.612,-0.75165 -0.6116,-0.38079 -2.8616,-0.0819 -5,0.66411 -5.3893,1.88024 -16.7863,4.59104 -19.3021,4.59104 -1.1472,0 -2.0859,0.45 -2.0859,1 0,0.55 -0.4552,1 -1.0116,1 -1.7506,0 -10.9516,6.44348 -10.9704,7.68261 -0.01,0.65044 -0.8055,1.44549 -1.768,1.76679 -0.9625,0.32129 -3.0738,2.37662 -4.6918,4.56739 -1.618,2.19076 -3.3214,3.98321 -3.7852,3.98321 -1.6485,0 1.1334,-3.59811 8.2911,-10.72363 6.1888,-6.16097 8.4221,-7.66883 15.1815,-10.25 4.3589,-1.6645 8.7303,-3.02637 9.7141,-3.02637 0.9839,0 3.7579,-0.70163 6.1646,-1.55917 8.1034,-2.88745 13.4285,-3.40186 24.8448,-2.40003 9.8123,0.86106 11.5194,1.30054 15.0851,3.8835 2.2114,1.6019 5.9163,3.20571 8.2332,3.56402 10.293,1.5918 15.234,4.33416 21.6954,12.04138 l 4.1669,4.9703 -0.3721,8.5251 c -0.3417,7.83061 -0.6533,8.91966 -3.8248,13.3685 -1.899,2.66386 -4.4122,6.25257 -5.5848,7.9749 -1.8991,2.78944 -5.299,4.95751 -13.368,8.52463 -10.8212,4.78383 -23.6189,6.68581 -34,5.05304 z m -35,-5.6687 c -0.825,-0.31055 -2.5749,-0.96261 -3.8887,-1.44903 -3.9925,-1.47821 -1.602,-2.05135 3.0414,-0.72917 4.9172,1.40017 7.2652,2.94194 4.2973,2.82178 -1.0725,-0.0434 -2.625,-0.33303 -3.45,-0.64358 z m -9.5,-5.27747 c -0.3399,-0.55 -0.168,-1 0.382,-1 0.55,0 1.2781,0.45 1.618,1 0.3399,0.55 0.168,1 -0.382,1 -0.55,0 -1.2781,-0.45 -1.618,-1 z m 41.5,-9.75859 c -2.475,-1.4743 -4.65,-3.03174 -4.8333,-3.46098 -0.1834,-0.42924 -1.0894,-0.78043 -2.0134,-0.78043 -2.4494,0 -12.3442,-6.92692 -11.8812,-8.31753 0.2165,-0.65036 1.2564,-1.33989 2.3108,-1.5323 2.8343,-0.5172 6.1382,-3.92948 10.0675,-10.39776 3.9631,-6.524 5.9428,-7.14654 9.1087,-2.86443 2.1407,2.8955 9.4227,6.11202 13.8373,6.11202 3.3356,0 5.4036,1.03001 5.4036,2.69144 0,0.81261 -1.9644,4.02696 -4.3653,7.14301 -2.4009,3.11605 -5.4088,7.57805 -6.6841,9.91555 -2.7613,5.0609 -4.5494,5.30444 -10.9506,1.49141 z m 7.9187,-6.49141 c 0.7738,-1.7875 2.738,-4.78998 4.3648,-6.67219 l 2.9578,-3.42218 -4.8707,-1.28368 c -2.6788,-0.70603 -5.1467,-1.30354 -5.4842,-1.32782 -0.3375,-0.0243 -1.7617,-1.19213 -3.1648,-2.59525 l -2.5511,-2.55112 -1.8352,2.6018 c -1.0094,1.43099 -3.0728,3.89438 -4.5853,5.4742 -3.3254,3.47338 -3.3463,3.65723 -0.5,4.38363 1.2375,0.31582 4.6577,2.3896 7.6004,4.60841 2.9428,2.21881 5.6454,4.0342 6.0059,4.0342 0.3605,0 1.2886,-1.4625 2.0624,-3.25 z m -60.252,7.58333 c -0.3667,-0.36666 -0.6667,-1.13166 -0.6667,-1.7 0,-0.6266 0.4658,-0.56756 1.1833,0.15 0.6509,0.65084 0.9509,1.41584 0.6667,1.7 -0.2842,0.28417 -0.8167,0.21667 -1.1833,-0.15 z m -2.7025,-5.49768 c -1.1451,-2.23286 -1.1183,-2.25968 0.6095,-0.60946 0.994,0.94941 1.533,2.00045 1.1978,2.33565 -0.3352,0.3352 -1.1485,-0.44159 -1.8073,-1.72619 z m -0.9575,-4.83565 c -0.5634,-3.46877 0.7096,-9 2.0714,-9 0.5781,0 0.6962,0.55516 0.266,1.25 -0.4257,0.6875 -1.0709,3.05 -1.4339,5.25 -0.3629,2.2 -0.7695,3.325 -0.9035,2.5 z m -141.9185,-40.75153 c -5.0202,-2.57263 -7.2417,-10.28751 -6.6288,-23.02013 0.6602,-13.7156 1.3346,-16.86841 5.3965,-25.22832 3.7877,-7.79543 6.4186,-9.67695 9.7108,-6.94466 6.0709,5.03837 9.8741,38.38066 5.3775,47.1437 -1.5454,3.01176 -8.0563,9.8014 -9.3971,9.79941 -0.5759,-8.6e-4 -2.5824,-0.78836 -4.4589,-1.75 z m 388.5159,-3.84471 c -4.408,-4.03822 -5.7392,-4.10752 -2.0284,-0.10558 2.8486,3.07212 2.4758,3.43689 -1.1109,1.08683 -2.6338,-1.72575 -3.246,-5.20373 -1.2648,-7.18499 0.9333,-0.93333 0.9086,-1.2 -0.1113,-1.2 -0.9644,0 -1.1323,-0.9541 -0.6346,-3.60676 1.201,-6.40212 2.4184,-8.74392 3.9045,-7.51061 0.729,0.60501 1.6215,0.80392 1.9834,0.44203 1.1705,-1.17049 0.6993,-2.32466 -0.949,-2.32466 -1.0545,0 -1.3983,-0.5438 -1,-1.58179 0.3339,-0.86998 0.607,-1.76998 0.607,-2 0,-1.38702 2.0149,-0.0977 2.0812,1.33179 0.053,1.13845 0.5583,0.70163 1.4464,-1.25 0.7509,-1.65 1.134,-3.7875 0.8514,-4.75 -0.2826,-0.9625 -0.041,-1.75 0.5368,-1.75 0.5778,0 2.1825,-2.23384 3.566,-4.96409 1.3835,-2.73026 3.4547,-5.46672 4.6025,-6.08102 1.1479,-0.61431 1.8274,-1.37657 1.51,-1.6939 -0.6604,-0.66046 1.2639,-3.26099 2.4131,-3.26099 3.3027,0 6.5436,17.23339 4.0997,21.79985 -0.7324,1.36863 -0.77,2.29048 -0.1098,2.69848 1.5136,0.93546 1.2023,2.50167 -0.4973,2.50167 -1.0339,0 -1.5,1.03781 -1.5,3.34028 0,1.83715 -1.3851,6.11215 -3.078,9.5 -2.7549,5.51307 -3.3961,6.15972 -6.107,6.15972 -2.3266,0 -2.8909,0.35986 -2.4334,1.55194 0.3744,0.97583 0.187,1.29949 -0.5048,0.87188 -0.6052,-0.37403 -1.4021,-0.19183 -1.7709,0.40488 -0.4184,0.67701 -2.1111,-0.23477 -4.5018,-2.42496 z m -212.6591,-1.30856 c -0.8377,-0.32735 -3.1647,-1.92264 -5.1711,-3.54508 -3.5279,-2.85268 -3.5827,-2.99572 -1.6633,-4.3401 1.5129,-1.05972 1.7204,-1.70877 0.8725,-2.73036 -2.3986,-2.89016 6.2805,-4.68356 11.3929,-2.35417 2.4114,1.09867 4.1885,4.86861 3.7121,7.87453 -0.48,3.02811 -6.2312,6.23309 -9.1431,5.09518 z m 0.055,-4.59518 c 0,-0.825 -0.45,-1.5 -1,-1.5 -0.55,0 -1,0.675 -1,1.5 0,0.825 0.45,1.5 1,1.5 0.55,0 1,-0.675 1,-1.5 z m 2,-1.55902 c 0,-1.13246 -0.4303,-1.79305 -0.9563,-1.46797 -0.526,0.32507 -0.7028,1.25163 -0.393,2.05902 0.7932,2.06711 1.3493,1.82352 1.3493,-0.59105 z m 38,5.4335 c -1.925,-0.69388 -4.2435,-1.28699 -5.1522,-1.31804 -2.1369,-0.073 -3.8225,-4.89243 -2.7373,-7.82617 0.9121,-2.46567 4.5207,-4.23027 8.6509,-4.23027 2.424,0 9.7545,4.15116 11.4733,6.49719 1.6261,2.2196 0.63,2.73466 -1.2943,0.6692 -2.2836,-2.4512 -3.9404,-2.07589 -3.9404,0.89263 0,2.36468 1.7263,2.59133 2.1767,0.28579 0.2479,-1.26937 0.6498,-1.04421 1.7241,0.96591 1.1413,2.13569 1.164,2.90633 0.1225,4.16124 -1.1418,1.37573 -1.4514,1.34271 -2.9007,-0.3094 -1.5534,-1.77066 -4.6951,-1.89785 -3.6125,-0.14625 0.9289,1.50305 -0.9254,1.6503 -4.5101,0.35817 z m -4.0997,-8.12448 c 0.055,-0.6875 -0.5001,-1.25 -1.2332,-1.25 -1.2266,0 -1.3001,0.67781 -0.6507,6 0.1806,1.48079 1.6907,-2.32642 1.8839,-4.75 z m 5.0997,-1.47943 c 0,-0.58531 -0.6354,-0.48812 -1.5,0.22943 -0.825,0.68469 -1.5,1.40067 -1.5,1.59106 0,0.19039 0.675,0.0871 1.5,-0.22943 0.825,-0.31659 1.5,-1.03256 1.5,-1.59106 z m 172,-14.77057 c 0,-0.55 0.4766,-1 1.059,-1 0.5825,0 0.7809,0.45 0.441,1 -0.3399,0.55 -0.8165,1 -1.059,1 -0.2425,0 -0.441,-0.45 -0.441,-1 z m 3.7905,-5.54288 c -0.8156,-0.81555 0.2679,-4.45712 1.3261,-4.45712 0.4859,0 0.8765,0.5625 0.8681,1.25 -0.021,1.73827 -1.5007,3.90063 -2.1942,3.20712 z m 4.3676,-9.45712 c 2.0013,-2.70689 3.8419,-3.88283 3.8419,-2.45455 0,0.72796 -4.7525,5.45455 -5.4845,5.45455 -0.3164,0 0.4227,-1.35 1.6426,-3 z m 29.3419,-3.45754 c -0.55,-0.16481 -3.025,-0.89342 -5.5,-1.61914 -5.2634,-1.54334 -6.4231,-2.19429 -19,-10.66452 -12.5278,-8.43723 -17.1646,-11.72793 -28.8258,-20.45769 -10.2463,-7.67056 -10.4331,-7.79677 -19.1742,-12.95982 -7.473,-4.41403 -36.8782,-18.84129 -38.4017,-18.84129 -0.3297,0 -8.1241,-3.67571 -17.3208,-8.16825 -25.7763,-12.59147 -41.4866,-24.08984 -43.97,-32.18159 -1.8386,-5.99065 1.1838,-15.3277 5.8546,-18.08685 4.9013,-2.89523 9.183,-3.53424 27.3379,-4.07992 17.0526,-0.51255 22.2047,0.0784 24.9932,2.86689 0.8187,0.81872 3.1801,2.02953 5.2477,2.69068 5.7162,1.82794 29.57,13.49697 40.2591,19.69437 24.7754,14.36441 31.2542,19.6582 56.0238,45.77671 8.2113,8.65853 22.2084,21.62342 24.1074,22.32962 0.5054,0.18792 2.82,3.11292 5.1438,6.5 4.1363,6.02909 4.225,6.3333 4.225,14.49492 0,7.89452 -0.1488,8.46457 -2.8057,10.75 -2.429,2.08929 -3.772,2.40282 -10,2.33447 -3.9569,-0.0434 -7.6443,-0.21379 -8.1943,-0.37859 z m -461.9561,-5.93628 c -3.7996,-3.5835 -3.8237,-3.65512 -3.2087,-9.53921 1.1233,-10.74728 7.562,-25.44922 14.8254,-33.85177 1.5617,-1.80663 2.8394,-3.7361 2.8394,-4.2877 0,-2.43202 22.1216,-22.88161 31.8021,-29.39839 5.6662,-3.81438 12.8699,-8.98136 16.0084,-11.48218 3.1384,-2.50081 7.5025,-5.70979 9.6979,-7.13107 10.2404,-6.62955 15.2643,-10.15334 18.4916,-12.97017 4.4839,-3.91359 15.7718,-10.59058 21.2511,-12.57042 4.6524,-1.68104 16.0703,-1.18338 18.466,0.80486 0.7171,0.59515 6.1366,1.24736 12.0434,1.44935 17.9995,0.61553 18.8503,0.84672 24.6722,6.70411 7.542,7.58799 9.1788,15.47589 4.9471,23.84074 -4.0558,8.0173 -19.4121,17.68331 -47.8798,30.13786 -4.4,1.92499 -18.35,8.53357 -31,14.68572 -22.7465,11.06245 -35.1618,18.46978 -51.3081,30.61191 -11.2664,8.47248 -25.5711,15.59122 -32.4809,16.16424 -5.0248,0.4167 -5.5638,0.23045 -9.1671,-3.16788 z m 384.6773,-3.15888 c -2.9034,-0.7816 -7.9977,-3.22698 -11.3208,-5.43419 -3.323,-2.20721 -6.3975,-4.01311 -6.8323,-4.01311 -0.8121,0 -8.5941,-7.40304 -10.8059,-10.27959 -2.154,-2.80147 -6.3618,-15.08769 -6.0559,-17.68246 0.4159,-3.52809 4.2236,-5.24217 10.2363,-4.60793 4.0171,0.42374 6.7931,1.78981 14.8259,7.29567 5.4359,3.72587 13.8923,8.80103 18.7921,11.27813 11.5683,5.84847 14.6355,8.94149 15.5019,15.63244 0.5722,4.41931 0.37,5.4313 -1.4487,7.25 -1.8023,1.80229 -3.2557,2.10404 -9.8638,2.04793 -4.2625,-0.0362 -10.1255,-0.7053 -13.0288,-1.48689 z m -25.2412,-19.97147 c -0.6958,-0.83829 -1.5253,-1.26382 -1.8435,-0.94562 -0.3182,0.31819 0.083,0.99718 0.8925,1.50885 2.1169,1.33881 2.3936,1.17499 0.951,-0.56323 z m -289.286,13.17984 c -3.9921,-6.09265 -0.9659,-9.84758 13.0988,-16.2533 9.9937,-4.55159 11.216,-5.19665 17.6838,-9.33291 7.4877,-4.78851 23.4556,-9.19181 27.2611,-7.51753 0.9693,0.42644 2.2123,0.82279 2.7623,0.88078 0.55,0.058 0.9388,1.89609 0.8639,4.08466 -0.122,3.5696 -0.8616,4.65885 -7.1841,10.58134 -3.8764,3.63117 -9.4639,7.78413 -12.4167,9.22879 -8.8476,4.32871 -26.8197,9.85672 -33.8191,10.40238 -6.2085,0.48401 -6.6459,0.37405 -8.25,-2.07421 z m 175.806,-8.65567 c -0.3399,-0.55 -0.168,-1 0.382,-1 0.55,0 1.2781,0.45 1.618,1 0.3399,0.55 0.168,1 -0.382,1 -0.55,0 -1.2781,-0.45 -1.618,-1 z m 16.2518,-2.84143 c -1.5115,-0.91221 -2.749,-1.98089 -2.75,-2.37484 -10e-4,-0.39396 1.5732,0.21299 3.4982,1.34877 3.3631,1.98428 4.3394,2.96982 2.75,2.77607 -0.4125,-0.0503 -1.9867,-0.83778 -3.4982,-1.75 z m -28.2128,-3.11549 c -1.7362,-1.91846 -1.7097,-1.93381 1.345,-0.78076 3.1888,1.20363 4.1812,2.73768 1.771,2.73768 -0.7398,0 -2.142,-0.88061 -3.116,-1.95692 z m 18.211,-3.17318 c -5.0653,-3.31281 -5.6686,-4.30342 -3.198,-5.25146 0.8535,-0.32754 1.3332,-0.2417 1.0659,0.19076 -0.7406,1.19834 0.5135,2.57237 4.6321,5.07515 2.0625,1.25332 3.75,2.46707 3.75,2.69721 0,0.98153 -1.7915,0.20424 -6.25,-2.71166 z m -286.75,-0.1517 c -1.9584,-1.5905 -11.4037,-14.68694 -13.6455,-18.9203 -3.0842,-5.82419 -2.2101,-13.10397 2.7952,-23.27657 5.033,-10.22905 8.1345,-12.89691 14.1408,-12.16357 3.0538,0.37284 5.1983,1.83753 11.0323,7.53506 8.2001,8.00826 12.6772,15.7182 12.6772,21.83137 0,6.10011 -2.6452,12.3561 -6.7874,16.05221 -2.0419,1.82201 -4.6126,4.1712 -5.7126,5.22041 -2.3273,2.21982 -8.64,5.01739 -11.2179,4.97139 -0.9801,-0.0175 -2.4571,-0.58 -3.2821,-1.25 z m 257.4051,-2.54569 c -3.2478,-2.10512 -6.5703,-4.63748 -7.3833,-5.62748 -0.8131,-0.98999 1.7407,0.28238 5.6751,2.82749 3.9343,2.54512 7.637,4.62748 8.2282,4.62748 0.5912,0 1.0749,0.45 1.0749,1 0,1.69169 -1.4632,1.14698 -7.5949,-2.82749 z m 12.7832,-1.10239 c 0.9194,-1.47221 1.6329,-1.70102 3.0085,-0.96482 0.9918,0.53079 1.8032,1.45433 1.8032,2.05233 0,0.66866 -0.6401,0.55887 -1.6626,-0.28519 -1.2962,-1.06996 -1.7553,-1.09695 -2.0833,-0.12244 -0.2314,0.6875 -0.8371,1.25 -1.3459,1.25 -0.5088,0 -0.3828,-0.86845 0.2801,-1.92988 z m 25.5007,-1.63552 c -2.0765,-1.41097 -4.5434,-2.63709 -5.4822,-2.7247 -0.9387,-0.0876 -3.5068,-1.87245 -5.7068,-3.96631 l -4,-3.80702 5.5,2.75677 c 3.025,1.51623 5.8599,3.3305 6.2997,4.03172 0.4398,0.70122 1.247,1.27494 1.7936,1.27494 0.5467,0 2.2073,1.125 3.6901,2.5 3.4565,3.20498 2.6828,3.18082 -2.0944,-0.0654 z m -18.439,0.3154 c 0.1375,-0.6875 -0.3459,-1.12635 -1.0743,-0.97522 -0.7284,0.15112 -1.0724,-0.13284 -0.7645,-0.63104 0.3079,-0.4982 -1.0056,-1.97185 -2.9189,-3.27478 -1.9132,-1.30293 -3.4817,-2.76135 -3.4855,-3.24093 0,-0.47959 1.0057,-0.1317 2.2432,0.77307 6.258,4.57544 8.3867,5.60972 10.5,5.10169 3.1311,-0.75271 2.8078,0.1574 -0.7003,1.97153 -3.5791,1.85083 -4.1226,1.89026 -3.7997,0.27568 z m -73.7427,-1.42027 c -7.9043,-2.84507 -11.5073,-8.42768 -11.5073,-17.82973 0,-9.8629 4.6627,-17.18909 15.8312,-24.8747 l 6.6688,-4.58911 5.0777,1.34593 c 7.1705,1.90069 9.9568,4.0428 12.8746,9.89797 6.2023,12.44637 1.0224,31.91208 -9.6256,36.17257 -4.7067,1.88327 -13.9084,1.82472 -19.3194,-0.12293 z m 64.3652,-1.07973 c -1.2439,-1.58606 -1.2085,-1.62143 0.3775,-0.37756 1.6658,1.30637 2.1955,2.12756 1.3725,2.12756 -0.2077,0 -0.9952,-0.7875 -1.75,-1.75 z m 38.8659,-1.33661 c -4.0736,-2.372 -10.7384,-20.49823 -10.7384,-29.20495 0,-7.54576 6.5545,-15.88589 15.4883,-19.70768 8.7207,-3.73067 16.2111,-0.43925 21.19,9.31125 3.1533,6.17526 4.3128,18.15496 2.3367,24.14246 -3.4695,10.51277 -20.6451,19.90272 -28.2766,15.45892 z m 229.3475,0.35937 c -6.7745,-1.27647 -18.7951,-12.00198 -23.0949,-20.60666 -4.5068,-9.019 -4.0608,-12.15901 2.9948,-21.0809 4.559,-5.76499 7.8096,-8.82006 8.9723,-8.43251 1.0024,0.33413 0.9095,0.83682 -0.3956,2.14195 -0.9379,0.93795 1.5193,-0.89604 2.0959,-0.89604 0.5766,0 -0.9375,1.43077 0,0 2.1349,-3.25829 5.8836,-2.89037 12.1143,1.18895 6.8588,4.4906 12.0027,17.59171 10.8082,27.52781 -1.0463,8.70328 -7.2709,21.26268 -10.2831,20.74846 -0.4388,-0.0749 -1.8841,-0.34088 -3.2119,-0.59106 z m -273.2251,-2.32922 c -2.2366,-1.94831 -2.2454,-2.00062 -0.1665,-0.99463 1.2069,0.58402 2.4709,1.50943 2.809,2.05647 0.9831,1.59061 -0.095,1.15753 -2.6425,-1.06184 z m 0.6392,-5.47454 c -1.65,-1.35248 -2.55,-2.45907 -2,-2.45907 0.55,0 2.35,1.10659 4,2.45907 1.65,1.35249 2.55,2.45907 2,2.45907 -0.55,0 -2.35,-1.10658 -4,-2.45907 z m -233.0392,-35.43786 c -3.6278,-1.44233 -12.2068,-13.46067 -18.225,-25.53114 -3.6382,-7.29712 -0.5272,-23.2469 4.964,-25.45027 1.2651,-0.50763 1.9076,-0.95148 1.4278,-0.98635 -1.6354,-0.11881 1.7284,-3.20434 5.7049,-5.23302 6.7056,-3.42091 14.7985,-1.55098 21.5759,4.98524 0.7746,0.74704 4.26,6.38163 7.7453,12.52133 6.9898,12.31299 7.7478,16.11985 4.7178,23.69254 -1.6062,4.01448 -9.5737,11.51527 -15.2862,14.39094 -3.4934,1.75856 -10.1247,2.60463 -12.6245,1.61073 z m 448.2211,-14.5294 c -11.6275,-4.14229 -19.6819,-11.61106 -19.6819,-18.25088 0,-1.84833 0.9451,-5.4734 2.1002,-8.05572 4.5583,-10.19035 8.2123,-17.19514 8.9697,-17.19514 0.4374,0 1.0825,-0.90488 1.4336,-2.01084 1.074,-3.38416 11.7946,-9.99085 16.1916,-9.97834 7.204,0.0205 18.3886,4.4085 20.2893,7.96 1.2868,2.40439 0.6066,11.82862 -1.3373,18.52918 -0.7978,2.75 -2.0372,8.08709 -2.7542,11.86019 -0.717,3.7731 -1.8862,7.08375 -2.5982,7.35699 -0.7121,0.27324 -1.2947,1.29629 -1.2947,2.27345 0,2.28054 -7.4098,9.00937 -9.9211,9.00937 -1.0534,0 -2.5146,0.20941 -3.2471,0.46535 -0.7325,0.25595 -4.4,-0.62768 -8.1499,-1.96361 z m -400.0868,-17.34785 c -0.3625,-0.5866 -1.2792,-0.82861 -2.037,-0.53782 -0.7823,0.30022 -2.8214,-1.07587 -4.718,-3.18402 -1.837,-2.04201 -3.7959,-4.21209 -4.3531,-4.8224 -3.6968,-4.04975 -8.5047,-13.71898 -10.874,-21.86898 -3.1415,-10.80641 -1.576,-19.34301 4.4974,-24.52402 8.1203,-6.92714 13.4067,-7.26979 23.1477,-1.50038 2.0581,1.21895 3.7419,2.68145 3.7419,3.25 0,0.56855 0.6227,1.03373 1.3837,1.03373 2.3359,0 8.3741,7.56541 11.6776,14.63113 2.5118,5.3724 3.162,8.11888 3.2644,13.78876 0.1414,7.82424 -1.0717,10.96925 -6.26,16.22954 -5.2001,5.27227 -17.8394,10.14377 -19.4706,7.50446 z M 834.55951,97.5472 c -3.6333,-1.22026 -7.273,-2.77582 -8.0881,-3.45678 -2.4603,-2.05534 -3.8903,-8.38433 -2.7795,-12.30215 1.5517,-5.47307 2.5211,-6.5803 4.3975,-5.02299 0.8746,0.7259 1.5762,0.85617 1.5762,0.29269 0,-0.5585 -0.675,-1.27448 -1.5,-1.59106 -1.9187,-0.73628 -1.9264,-3.03962 -0.015,-4.62561 0.8166,-0.67767 2.4465,-3.15803 3.6221,-5.51191 1.1755,-2.35388 4.3488,-7.14202 7.0517,-10.64032 2.7028,-3.49829 5.9104,-7.80889 7.1279,-9.57911 3.3197,-4.826606 7.4182,-6.660356 13.566,-6.069636 8.4014,0.80728 12.3704,5.998846 12.3954,16.213716 0.028,11.32961 -3.5725,19.84049 -14.6241,34.57064 -2.268,3.02288 -4.8803,6.33718 -5.8052,7.36513 -2.5288,2.81067 -9.2003,2.95155 -16.9245,0.35739 z m -51.184,-15.1882 c -6.9355,-2.40256 -8.8234,-3.51122 -11.9718,-7.03046 -3.2936,-3.68147 -1.5332,-10.22053 7.8746,-29.25 4.6904,-9.487496 8.9729,-17.249996 9.5167,-17.249996 0.5438,0 0.7105,0.45 0.3706,1 -0.3399,0.55 0.046,1 0.8577,1 0.8116,0 1.6533,-0.53283 1.8703,-1.18406 0.2885,-0.8655 1.5271,-0.73098 4.6036,0.5 2.3149,0.92623 6.5623,1.69069 9.4387,1.6988 6.6041,0.0186 9.7773,1.61777 11.9317,6.013 3.2645,6.660106 1.8966,16.429046 -4.1268,29.472256 -4.3538,9.42768 -4.7249,10.03695 -5.9461,9.76199 -0.5814,-0.1309 -0.8235,0.37074 -0.538,1.11476 0.2855,0.74401 -0.8902,2.53861 -2.6127,3.988 -2.6056,2.19244 -4.0851,2.62539 -8.8051,2.57658 -3.219,-0.0333 -8.6108,-1.07625 -12.4634,-2.41087 z m -249.439,-3.6254 c -10.3448,-5.12063 -18.2709,-20.66765 -18.2709,-35.838506 0,-4.16934 0.499,-5.34937 3.75,-8.8675 4.8503,-5.24882 14.4587,-10.19408 19.8122,-10.19691 5.9519,-0.003 17.3553,6.11989 17.4205,9.35395 0.01,0.47086 1.285,2.49586 2.8345,4.5 5.7102,7.386006 8.2183,19.176626 6.2884,29.561976 -0.6049,3.25495 -1.8176,6.71121 -2.6949,7.6806 -2.162,2.38903 -14.1069,5.90151 -20.0659,5.90054 -2.9019,-4.7e-4 -6.5408,-0.84028 -9.0739,-2.09415 z"
       style="fill:#ffffff" />
    <path
       inkscape:connector-curvature="0"
       id="path1006"
       d="m 558.24421,102.39692 c -15.607,3.64573 -27.4253,16.09511 -40.7626,24.35128 -27.3426,20.09603 -59.554,39.1497 -71.9712,72.67427 -1.375,6.03476 -6.1836,14.64686 1.6324,18.35439 9.0923,0.45695 17.4442,-6.29904 25.3233,-10.34972 28.0941,-20.59493 59.1742,-36.48238 90.8925,-50.68695 15.3507,-7.86228 32.7098,-14.10667 44.6428,-26.95669 6.9575,-11.3751 -4.6723,-25.33808 -16.9485,-24.44766 -10.929,-0.99402 -21.8587,-2.33355 -32.8087,-2.93892 z"
       style="opacity:1;fill:#b3b3b3;fill-opacity:1;stroke:none;stroke-width:11.31370831;stroke-linecap:butt;stroke-linejoin:miter;stroke-miterlimit:4;stroke-dasharray:none;stroke-dashoffset:0;stroke-opacity:1" />
    <path
       inkscape:connector-curvature="0"
       id="path1008"
       d="m 770.22441,103.53492 c -10.4441,1.35002 -22.9454,-1.89386 -31.9801,4.49676 -4.9445,5.91006 -2.8091,14.14267 3.3146,18.37373 24.902,18.67175 54.6311,29.47838 81.7064,44.51856 27.6885,13.08333 49.2277,35.68446 76.8733,48.58751 5.3901,1.14911 14.3741,4.28304 18.1003,-1.12142 3.3455,-9.763 -2.2857,-19.268 -9.8493,-25.19109 -27.3151,-27.54961 -54.6781,-56.85752 -90.4423,-72.79255 -15.411,-6.41204 -30.0516,-18.63922 -47.7229,-16.8715 z"
       style="opacity:1;fill:#b3b3b3;fill-opacity:1;stroke:none;stroke-width:11.31370831;stroke-linecap:butt;stroke-linejoin:miter;stroke-miterlimit:4;stroke-dasharray:none;stroke-dashoffset:0;stroke-opacity:1" />
    <path
       inkscape:connector-curvature="0"
       id="path1010"
       d="m 793.42911,34.492574 c -7.4147,4.90559 -9.3427,15.276936 -13.6781,22.707106 -0.4428,3.44979 -6.2645,10.06353 -3.2096,12.28639 5.0207,0.89095 6.742,6.58291 9.6812,8.8858 6.8591,2.29179 16.2954,2.85779 19.2521,-5.4497 1.2939,-3.50606 6.665,-8.0061 2.2097,-10.811 -1.6306,-5.18707 1.5075,-12.16941 6.4717,-13.23892 0.8036,-5.29194 -0.6863,-13.624526 -7.9135,-11.962806 -4.3942,-0.18342 -8.463,-2.20393 -12.8135,-2.41687 z"
       style="opacity:1;fill:#808080;fill-opacity:1;stroke:none;stroke-width:11.31370831;stroke-linecap:butt;stroke-linejoin:miter;stroke-miterlimit:4;stroke-dasharray:none;stroke-dashoffset:0;stroke-opacity:1" />
    <path
       inkscape:connector-curvature="0"
       id="path1012"
       d="m 856.64051,44.15452 c -9.349,2.35334 -12.7909,13.4777 -18.5186,20.22907 -1.9854,4.0123 -7.5465,8.20868 -3.7442,12.70941 1.6523,5.55747 -6.0239,3.60175 -6.1292,6.8059 -1.1386,9.38552 11.8875,10.66111 18.5533,9.76139 9.3871,-8.57459 16.9172,-20.36146 19.5173,-32.90809 0.5589,-7.07555 0.9423,-18.523656 -9.6786,-16.59768 z"
       style="opacity:1;fill:#808080;fill-opacity:1;stroke:none;stroke-width:11.31370831;stroke-linecap:butt;stroke-linejoin:miter;stroke-miterlimit:4;stroke-dasharray:none;stroke-dashoffset:0;stroke-opacity:1" />
    <path
       inkscape:connector-curvature="0"
       id="path1014"
       d="m 895.68331,75.26723 c -4.4881,0.21178 -8.8305,1.78056 -8.651,6.71199 -1.732,5.49623 -6.2434,10.17231 -11.2833,11.81641 -2.1149,3.12304 -3.5951,5.76482 -0.2486,8.37756 1.8071,5.58277 -3.4371,13.84105 4.8899,15.17885 4.2364,1.56397 10.8568,6.85012 14.5169,4.0539 2.0144,-6.68 4.0375,-16.88631 11.8578,-18.45659 1.3982,-7.44416 5.1761,-15.79914 2.5218,-23.21299 -3.796,-3.01031 -8.7633,-4.65273 -13.6035,-4.46913 z"
       style="opacity:1;fill:#808080;fill-opacity:1;stroke:none;stroke-width:11.31370831;stroke-linecap:butt;stroke-linejoin:miter;stroke-miterlimit:4;stroke-dasharray:none;stroke-dashoffset:0;stroke-opacity:1" />
    <path
       sodipodi:nodetypes="ccccccccc"
       inkscape:connector-curvature="0"
       id="path1016"
       d="m 937.31701,137.24403 c -2.5879,1.68268 -5.1578,3.95801 -8.3417,4.16806 -1.0436,2.22976 -0.71904,1.85751 -4.03824,4.70668 -0.956,3.64937 -4.98826,9.22782 -1.36996,13.11186 2.679,4.73464 13.60336,19.04403 19.81556,17.12524 4.3705,0.67212 0.51544,-3.22686 3.33384,-0.96122 4.4774,-3.71771 2.33728,-3.0173 4.71498,-7.72293 0.8241,-4.2618 1.66522,-5.51749 -0.16848,-10.32487 -1.064,-7.55841 -5.5658,-18.3663 -13.946,-20.10282 z"
       style="opacity:1;fill:#808080;fill-opacity:1;stroke:none;stroke-width:11.31370831;stroke-linecap:butt;stroke-linejoin:miter;stroke-miterlimit:4;stroke-dasharray:none;stroke-dashoffset:0;stroke-opacity:1" />
    <path
       inkscape:connector-curvature="0"
       id="path1018"
       d="m 407.71061,141.94795 c -7.0585,4.47036 -10.4957,14.23712 -11.3358,22.34015 1.8059,8.63762 7.1757,17.25715 13.7748,22.95611 11.3604,-1.90958 22.7535,-15.6011 16.5507,-27.23742 -4.1593,-7.41332 -10.6103,-15.55117 -18.9897,-18.05884 z"
       style="opacity:1;fill:#808080;fill-opacity:1;stroke:none;stroke-width:11.31370831;stroke-linecap:butt;stroke-linejoin:miter;stroke-miterlimit:4;stroke-dasharray:none;stroke-dashoffset:0;stroke-opacity:1" />
    <path
       inkscape:connector-curvature="0"
       id="path1020"
       d="m 438.30401,86.09756 c -13.9094,1.89124 -21.1132,20.33935 -12.0499,31.26022 4.1059,5.77615 6.94,14.79606 14.0331,17.6793 9.8377,-0.31468 19.4057,-9.08148 21.7021,-18.38754 -4.2716,-10.96297 -8.9745,-24.04932 -19.9012,-29.93602 -1.2056,-0.44359 -2.4987,-0.66808 -3.7841,-0.61596 z"
       style="opacity:1;fill:#808080;fill-opacity:1;stroke:none;stroke-width:11.31370831;stroke-linecap:butt;stroke-linejoin:miter;stroke-miterlimit:4;stroke-dasharray:none;stroke-dashoffset:0;stroke-opacity:1" />
    <path
       inkscape:connector-curvature="0"
       id="path1022"
       d="m 478.63401,52.62047 c -10.0782,2.32949 -14.8389,14.44491 -10.4851,23.62731 3.6374,10.41597 8.2481,23.67969 19.6277,27.49154 10.3334,-1.79326 20.6157,-11.26025 17.8158,-22.61637 -2.5268,-12.79956 -13.0236,-27.39661 -26.9584,-28.50248 z"
       style="opacity:1;fill:#808080;fill-opacity:1;stroke:none;stroke-width:11.31370831;stroke-linecap:butt;stroke-linejoin:miter;stroke-miterlimit:4;stroke-dasharray:none;stroke-dashoffset:0;stroke-opacity:1" />
    <path
       inkscape:connector-curvature="0"
       id="path1024"
       d="m 539.33741,28.987634 c -7.392,0.63125 -15.2601,6.0767 -18.5009,11.95637 0.058,13.304386 4.9604,30.896416 19.4594,34.604956 6.679,0.14258 15.1002,-0.43364 19.7879,-5.67067 3.5544,-14.87948 -1.9429,-33.023366 -16.1474,-40.191836 -1.4732,-0.51272 -3.0399,-0.75155 -4.599,-0.69882 z"
       style="opacity:1;fill:#808080;fill-opacity:1;stroke:none;stroke-width:11.31370831;stroke-linecap:butt;stroke-linejoin:miter;stroke-miterlimit:4;stroke-dasharray:none;stroke-dashoffset:0;stroke-opacity:1" />
    <path
       inkscape:connector-curvature="0"
       id="path1026"
       d="m 566.08911,180.84557 c -17.8695,4.04184 -34.2162,13.54992 -49.6604,23.10803 -4.0484,3.05496 2.7923,4.14068 4.8917,2.54945 17.2955,-4.24226 36.8921,-9.29005 46.7796,-25.59947 -0.6589,-0.1486 -1.3435,-0.10677 -2.0109,-0.058 z"
       style="opacity:1;fill:#808080;fill-opacity:1;stroke:none;stroke-width:11.31370831;stroke-linecap:butt;stroke-linejoin:miter;stroke-miterlimit:4;stroke-dasharray:none;stroke-dashoffset:0;stroke-opacity:1" />
    <path
       inkscape:connector-curvature="0"
       id="path1028"
       d="m 482.39641,224.0509 c -8.2382,12.56637 -8.7936,29.01473 -5.284,43.20533 2.3298,6.21006 7.5603,-1.21466 9.2808,-4.1211 1.6809,-12.59785 1.6633,-27.40741 -3.9968,-39.08423 z"
       style="opacity:1;fill:#808080;fill-opacity:1;stroke:none;stroke-width:11.31370831;stroke-linecap:butt;stroke-linejoin:miter;stroke-miterlimit:4;stroke-dasharray:none;stroke-dashoffset:0;stroke-opacity:1" />
    <path
       inkscape:connector-curvature="0"
       id="path1030"
       d="m 548.76781,334.05572 c -10.2273,5.241 -6.7555,18.94158 0.1629,25.54976 12.9897,13.15256 27.4805,28.80153 47.0779,30.07413 9.3612,-5.678 4.5021,-19.14781 -0.5607,-26.23753 -6.5034,-11.8629 -17.2376,-21.66463 -30.3863,-25.47241 -5.2589,-1.84484 -10.6679,-3.80169 -16.2938,-3.91395 z"
       style="opacity:1;fill:#808080;fill-opacity:1;stroke:none;stroke-width:11.31370831;stroke-linecap:butt;stroke-linejoin:miter;stroke-miterlimit:4;stroke-dasharray:none;stroke-dashoffset:0;stroke-opacity:1" />
    <path
       inkscape:connector-curvature="0"
       id="path1038"
       d="m 724.50871,137.51595 c -10.8628,1.00583 -20.4954,12.6641 -15.7304,23.58588 2.007,5.92323 3.1518,14.16261 8.6814,17.70252 12.4164,-0.0948 23.6077,-12.5523 19.7272,-25.12162 -1.2776,-6.60666 -4.1749,-16.68009 -12.6782,-16.16678 z"
       style="opacity:1;fill:#808080;fill-opacity:1;stroke:none;stroke-width:11.31370831;stroke-linecap:butt;stroke-linejoin:miter;stroke-miterlimit:4;stroke-dasharray:none;stroke-dashoffset:0;stroke-opacity:1" />
    <path
       inkscape:connector-curvature="0"
       id="path1040"
       d="m 622.39251,143.79981 c -11.9357,4.45799 -24.699,19.86421 -16.3546,32.37223 8.0178,8.87576 26.4301,8.07438 29.1461,-5.39721 4.2566,-10.22212 0.6376,-27.24924 -12.7915,-26.97502 z"
       style="opacity:1;fill:#808080;fill-opacity:1;stroke:none;stroke-width:11.31370831;stroke-linecap:butt;stroke-linejoin:miter;stroke-miterlimit:4;stroke-dasharray:none;stroke-dashoffset:0;stroke-opacity:1" />
    <path
       inkscape:connector-curvature="0"
       id="path1042"
       d="m 797.62241,179.11648 c -4.0634,0.9525 0.8245,7.46668 1.3093,9.98236 1.4045,3.65507 7.6945,3.66598 7.0738,8.65653 4.924,7.37659 14.5371,10.8078 22.5445,14.10899 4.9854,0.52209 13.5472,4.04125 16.6944,-1.27058 -0.1004,-9.60572 -12.4431,-12.13083 -18.5812,-17.09226 -9.6358,-4.41418 -18.0964,-13.62227 -29.0408,-14.38504 z"
       style="opacity:1;fill:#808080;fill-opacity:1;stroke:none;stroke-width:11.31370831;stroke-linecap:butt;stroke-linejoin:miter;stroke-miterlimit:4;stroke-dasharray:none;stroke-dashoffset:0;stroke-opacity:1" />
    <path
       inkscape:connector-curvature="0"
       id="path1044"
       d="m 880.73781,232.80687 c -3.4513,4.79651 -8.0939,9.09807 -8.4549,15.18623 -1.1459,3.77975 -1.7253,8.94625 -6.9357,9.0377 -3.0766,6.01109 4.2513,13.70781 9.2034,7.41082 5.3983,-9.49398 7.6832,-21.03678 6.5297,-31.91925 z"
       style="opacity:1;fill:#808080;fill-opacity:1;stroke:none;stroke-width:11.31370831;stroke-linecap:butt;stroke-linejoin:miter;stroke-miterlimit:4;stroke-dasharray:none;stroke-dashoffset:0;stroke-opacity:1" />
    <path
       inkscape:connector-curvature="0"
       id="path1048"
       d="m 701.16341,268.22789 c -0.9622,-0.98513 -1.7898,-1.48317 -2.7704,-1.66713 -1.2692,-0.23811 -1.8095,0.321 -1.2868,1.33172 0.6993,1.35227 -0.8501,1.38531 -4.824,0.10287 -1.3881,-0.44799 -3.1663,-0.92599 -3.9514,-1.06225 -1.6947,-0.29409 -2.3343,-0.79374 -3.0452,-2.37901 -1.2724,-2.83707 -0.846,-5.85214 1.0485,-7.41376 2.0986,-1.72979 6.3438,-2.64792 8.6868,-1.87872 2.3359,0.76689 6.5895,3.20797 8.6765,4.97941 0.7968,0.67633 1.9734,2.30668 1.9788,2.74204 0.01,0.44048 -0.8821,-0.0202 -1.9235,-0.99831 -2.0507,-1.92593 -3.1863,-2.2161 -3.8266,-0.97778 -0.3121,0.60345 -0.3439,2.61204 -0.052,3.25364 0.4742,1.04065 1.5645,0.65531 1.9456,-0.68761 0.1128,-0.39739 0.2768,-0.80207 0.3646,-0.8993 0.2075,-0.22991 0.733,0.41349 1.3712,1.67884 1.0025,1.98761 0.9838,2.76669 -0.097,4.02924 -0.8427,0.9845 -1.2076,0.96004 -2.2956,-0.15389 z m -13.8066,-3.47706 c 0.476,-0.92691 1.1799,-3.44472 1.2209,-4.36659 0.025,-0.56394 -0.05,-1.03639 -0.192,-1.20747 -0.3678,-0.44332 -1.2171,-0.55547 -1.7185,-0.22693 -0.3957,0.25926 -0.4348,0.40011 -0.4348,1.56706 0,1.22042 0.2755,4.02855 0.4414,4.49909 0.1283,0.36397 0.4177,0.25161 0.683,-0.26516 z m 4.4633,-4.37107 c 0.8716,-0.25882 1.7742,-0.99678 1.8431,-1.50676 0.075,-0.55463 -0.02,-0.70711 -0.438,-0.70711 -0.4811,0 -2.5734,1.81209 -2.5734,2.22875 0,0.30773 0.086,0.30664 1.1683,-0.0149 z"
       style="opacity:1;fill:#808080;fill-opacity:1;stroke:none;stroke-width:1.41421354;stroke-linecap:butt;stroke-linejoin:miter;stroke-miterlimit:4;stroke-dasharray:none;stroke-dashoffset:0;stroke-opacity:1" />
    <path
       inkscape:connector-curvature="0"
       id="path1050"
       d="m 653.03481,268.9519 c -0.9904,-0.23462 -5.2826,-3.27921 -7.4168,-5.26098 -1.1655,-1.08223 -1.1801,-1.41365 -0.1011,-2.29005 1.8255,-1.48272 2.0113,-1.98635 1.1903,-3.22694 -0.2999,-0.45309 -0.4185,-0.81479 -0.3441,-1.04911 0.1931,-0.60864 1.123,-1.23647 2.4486,-1.65325 1.074,-0.33769 1.6516,-0.39789 3.7448,-0.39032 4.7502,0.0172 6.8449,1.09223 8.365,4.29313 0.5564,1.17145 0.6466,1.54935 0.7086,2.9667 0.066,1.51842 0.038,1.68431 -0.4306,2.54598 -0.9282,1.7054 -3.4046,3.41567 -5.7444,3.96721 -1.2369,0.29155 -1.5487,0.30413 -2.4203,0.0976 z m -0.9147,-3.18761 c 0.1848,-0.0989 0.4225,-0.5013 0.5284,-0.89426 0.3682,-1.36754 -0.7225,-2.63208 -1.5917,-1.84543 -0.6574,0.59491 -0.5836,2.1587 0.1272,2.6985 0.3527,0.26784 0.5005,0.27435 0.9361,0.0412 z m 2.491,-1.42432 c 0.2024,-0.72435 0.162,-2.17271 -0.074,-2.63854 -0.1475,-0.29149 -0.372,-0.44194 -0.6596,-0.44194 -0.3453,0 -0.4799,0.13438 -0.6478,0.64687 -0.2413,0.73634 -0.093,1.48186 0.4793,2.41549 0.4021,0.65562 0.7219,0.66205 0.9018,0.0181 z"
       style="opacity:1;fill:#808080;fill-opacity:1;stroke:none;stroke-width:1.41421354;stroke-linecap:butt;stroke-linejoin:miter;stroke-miterlimit:4;stroke-dasharray:none;stroke-dashoffset:0;stroke-opacity:1" />
    <path
       inkscape:connector-curvature="0"
       id="path1056"
       d="m 802.04981,326.43607 c -6.6268,1.17151 -12.362,5.17866 -18.7969,6.99219 -10.7303,5.30899 -20.3205,12.81761 -28.5899,21.25878 -5.4581,6.58371 -10.643,14.07878 -12.1396,22.64942 -0.053,1.77885 0,4.2164 1.3516,5.40527 10.3153,-1.54883 20.9387,-3.45179 30.2559,-8.5883 8.3636,-3.74723 16.0882,-9.55764 20.2226,-17.94295 4.5001,-8.74777 8.7135,-17.5675 10.4531,-27.26953 0.5788,-1.59389 -1.4365,-2.57195 -2.7568,-2.50488 z"
       style="opacity:1;fill:#808080;fill-opacity:1;stroke:none;stroke-width:4;stroke-linecap:butt;stroke-linejoin:miter;stroke-miterlimit:4;stroke-dasharray:none;stroke-dashoffset:0;stroke-opacity:1" />
    <path
       inkscape:connector-curvature="0"
       id="path1867"
       d="m 674.98606,316.82485 c -2.8526,-2.04302 -6.17135,-4.09069 -7.375,-4.55036 -1.20364,-0.45968 -2.18844,-1.03966 -2.18844,-1.28885 0,-0.24919 1.40818,-2.07487 3.12929,-4.05707 1.72112,-1.9822 3.60713,-4.26741 4.19116,-5.07824 l 1.06185,-1.47425 2.54007,2.28374 c 2.02046,1.81657 3.23432,2.45583 5.93385,3.12498 1.86658,0.46269 4.25229,1.06731 5.30157,1.34361 l 1.90779,0.50237 -1.82437,2.01937 c -2.10745,2.33269 -5.29191,7.13261 -6.22237,9.37894 -0.35209,0.85001 -0.78161,1.53757 -0.9545,1.52791 -0.17289,-0.01 -2.64829,-1.68913 -5.5009,-3.73215 z"
       style="opacity:0.3;fill:#00ffff;fill-opacity:1;stroke:none;stroke-width:4;stroke-linecap:butt;stroke-linejoin:miter;stroke-miterlimit:4;stroke-dasharray:none;stroke-dashoffset:0;stroke-opacity:1" />
  </g>
</svg>
